<svg xmlns="http://www.w3.org/2000/svg" viewBox="0 0 980.17 258.5"><defs><style>.cls-1{font-size:155.63px;stroke:#000;stroke-miterlimit:10;font-family:DINAlternate-Bold, DIN Alternate;font-weight:700;}.cls-1,.cls-2{fill:#fff;}</style></defs><title>Asset 2</title><g id="Layer_2" data-name="Layer 2"><g id="Layer_1-2" data-name="Layer 1"><text class="cls-1" transform="translate(165.84 134.17) scale(0.97 1)">CET UCLA</text><path class="cls-2" d="M33.78,234.42c-1.32,6.37-5.41,12.09-14.62,12.09C7.55,246.51,3,237.44,3,224.63c0-10.47,4.83-20.95,16.41-20.95,8.52,0,13.13,5,14.2,12.33H30.37c-1.19-5.77-4.57-9.48-11.09-9.48-9,0-13,8.54-13,18.15,0,9.27,3,19,13.05,19,6.58,0,9.73-3.54,11.33-9.24Z" transform="translate(-2.99)"/><path class="cls-2" d="M42.52,231.29c-.06,7.54,3.26,12.5,9.12,12.5,5.65,0,7.38-4.16,8-5.89h2.94c-.68,2.93-3.23,8.61-11.21,8.61-9.26,0-11.93-8-11.93-15.79,0-7.32,3.55-15.43,12.17-15.43,9,0,11.5,7.44,11.5,13.83v2.17Zm17.63-2.58C60,222.47,57.48,218,51.52,218c-6.91,0-8.52,6.54-8.88,10.71Z" transform="translate(-2.99)"/><path class="cls-2" d="M70.24,225.31c0-6.3-.06-8.16-.12-9.42h2.93c.06.6.18,4.1.12,5.25,1.26-2.93,3.85-5.85,9.17-5.85,5.07,0,9.61,2.55,9.61,11.45v19.17H89V227c0-5-1.9-8.88-6.85-8.88-6.54,0-8.92,5.22-8.92,12.2v15.58H70.24Z" transform="translate(-2.99)"/><path class="cls-2" d="M96.61,215.89h5.2v-9.11h2.93v9.11h6.52v2.66h-6.52v21c0,2.8.72,4,3.35,4a16.15,16.15,0,0,0,2.69-.23v2.52a10.05,10.05,0,0,1-3.34.49c-3.42,0-5.63-1.23-5.63-5.82v-22h-5.2Z" transform="translate(-2.99)"/><path class="cls-2" d="M117.76,231.29c-.06,7.54,3.26,12.5,9.11,12.5,5.66,0,7.39-4.16,8-5.89h2.94c-.68,2.93-3.23,8.61-11.22,8.61-9.25,0-11.92-8-11.92-15.79,0-7.32,3.54-15.43,12.17-15.43,9,0,11.5,7.44,11.5,13.83v2.17Zm17.63-2.58c-.18-6.24-2.67-10.71-8.63-10.71-6.91,0-8.52,6.54-8.88,10.71Z" transform="translate(-2.99)"/><path class="cls-2" d="M145.48,226.09c0-4.69-.06-9.1-.12-10.2h2.93c.06,1.49.06,3.41.06,6.63a10.67,10.67,0,0,1,10.13-7.23v3.23c-7.13.47-10.07,5.68-10.07,11.88v15.51h-2.93Z" transform="translate(-2.99)"/><path class="cls-2" d="M179.09,245.91V218.55h-5v-2.66h5v-4.41c0-4.94,1.24-9.84,7.43-9.84A7.07,7.07,0,0,1,189,202v2.78a9.8,9.8,0,0,0-2.69-.3c-3,0-4.29,2-4.29,6.48v4.93h6v2.66h-6v27.36Z" transform="translate(-2.99)"/><path class="cls-2" d="M215.3,230.36c0,8.65-3.55,16-12.76,16-8.57,0-12.29-7.57-12.29-15.91,0-8.15,4.38-15.19,12.65-15.19C210.63,215.29,215.3,221.37,215.3,230.36Zm-21.94.18c0,7.24,3.22,13.13,9.48,13.13,6.72,0,9.29-5.71,9.29-13.31,0-6.88-3.16-12.35-9.42-12.35S193.36,223.31,193.36,230.54Z" transform="translate(-2.99)"/><path class="cls-2" d="M222.52,226.09c0-4.69-.06-9.1-.12-10.2h2.93c.06,1.49.06,3.41.06,6.63a10.65,10.65,0,0,1,10.12-7.23v3.23c-7.12.47-10.06,5.68-10.06,11.88v15.51h-2.93Z" transform="translate(-2.99)"/><path class="cls-2" d="M278.58,225.39H259.47v17.73h21l-.49,2.79H256.42V204.28h23.12v2.79H259.47v15.47h19.11Z" transform="translate(-2.99)"/><path class="cls-2" d="M287.14,225.25c0-4.94-.06-8-.12-9.36H290c.06.72.18,3.75.12,4.71a8.89,8.89,0,0,1,8.46-5.31c3.91,0,6.6,1.63,7.8,5.5a9.26,9.26,0,0,1,8.83-5.5c4.22,0,8.61,2.11,8.61,10.09v20.53h-2.93v-20c0-4.29-1.32-7.81-6.26-7.81-5.37,0-7.63,4.76-7.63,9.79v18h-2.87V225.64c0-4.34-1.68-7.51-6.09-7.51-4.77,0-7.92,4-7.92,10.38v17.4h-2.93Z" transform="translate(-2.99)"/><path class="cls-2" d="M334.06,231.29c-.06,7.54,3.26,12.5,9.11,12.5,5.66,0,7.39-4.16,8-5.89h2.93c-.68,2.93-3.22,8.61-11.21,8.61-9.25,0-11.92-8-11.92-15.79,0-7.32,3.54-15.43,12.16-15.43,9,0,11.51,7.44,11.51,13.83v2.17Zm17.63-2.58c-.18-6.24-2.68-10.71-8.64-10.71-6.9,0-8.51,6.54-8.87,10.71Z" transform="translate(-2.99)"/><path class="cls-2" d="M361.78,226.09c0-4.69-.06-9.1-.12-10.2h2.93c.06,1.49.06,3.41.06,6.63a10.65,10.65,0,0,1,10.12-7.23v3.23c-7.12.47-10.06,5.68-10.06,11.88v15.51h-2.93Z" transform="translate(-2.99)"/><path class="cls-2" d="M400.89,244.08c0,9.42-3.72,14.42-12,14.42s-10.68-4.34-11.15-8.49h2.93c.77,4,4,5.83,8.23,5.83,7.39,0,9.11-5.05,9.11-12.33v-2.86c-1.56,3.7-4,5.6-9.33,5.6-7,0-11.42-6.05-11.42-15.36,0-9.84,5.17-15.6,12.19-15.6,4.74,0,7.6,2.09,8.44,4.88,0-1.65.12-3.51.18-4.28H401c-.06,1.38-.12,4.45-.12,8.48Zm-20.51-13.19c0,8,3.46,12.52,8.82,12.52,6.56,0,8.89-4.23,8.89-12.7,0-8.81-2.25-12.58-8.59-12.58C383.55,218.13,380.38,223.35,380.38,230.89Z" transform="translate(-2.99)"/><path class="cls-2" d="M410.32,202.17h2.93V208h-2.93Zm0,13.72h2.93v30h-2.93Z" transform="translate(-2.99)"/><path class="cls-2" d="M422.68,225.31c0-6.3-.07-8.16-.12-9.42h2.93c.06.6.18,4.1.12,5.25,1.26-2.93,3.85-5.85,9.17-5.85,5.07,0,9.6,2.55,9.6,11.45v19.17h-3V227c0-5-1.9-8.88-6.86-8.88-6.53,0-8.92,5.22-8.92,12.2v15.58h-2.93Z" transform="translate(-2.99)"/><path class="cls-2" d="M475.23,244.08c0,9.42-3.72,14.42-12,14.42s-10.67-4.34-11.14-8.49H455c.77,4,4,5.83,8.22,5.83,7.39,0,9.12-5.05,9.12-12.33v-2.86c-1.56,3.7-4,5.6-9.34,5.6-7,0-11.42-6.05-11.42-15.36,0-9.84,5.18-15.6,12.2-15.6,4.74,0,7.6,2.09,8.44,4.88,0-1.65.12-3.51.18-4.28h2.93c-.06,1.38-.12,4.45-.12,8.48Zm-20.51-13.19c0,8,3.45,12.52,8.82,12.52,6.56,0,8.88-4.23,8.88-12.7,0-8.81-2.24-12.58-8.58-12.58C457.89,218.13,454.72,223.35,454.72,230.89Z" transform="translate(-2.99)"/><path class="cls-2" d="M507.76,207.13H495v-2.85h28.66v2.85h-12.8v38.78h-3.12Z" transform="translate(-2.99)"/><path class="cls-2" d="M523.66,231.29c-.06,7.54,3.26,12.5,9.11,12.5,5.66,0,7.38-4.16,8-5.89h2.93c-.68,2.93-3.22,8.61-11.21,8.61-9.25,0-11.93-8-11.93-15.79,0-7.32,3.55-15.43,12.17-15.43,9,0,11.51,7.44,11.51,13.83v2.17Zm17.63-2.58c-.18-6.24-2.68-10.71-8.64-10.71-6.91,0-8.52,6.54-8.87,10.71Z" transform="translate(-2.99)"/><path class="cls-2" d="M573,236.93c-1.43,5.77-5.09,9.58-11.39,9.58-7.95,0-12.16-5.53-12.16-15.73,0-8.08,3.76-15.49,12.35-15.49,6.79,0,10.55,4.5,11.14,10h-3c-.77-3.87-3.09-7.28-8.15-7.28-6.32,0-9.17,5.43-9.17,12.83,0,8.14,3.21,13,9.16,13,4.66,0,6.91-2.81,8.22-6.86Z" transform="translate(-2.99)"/><path class="cls-2" d="M582.51,202.17v18.49c1.5-3.16,4.67-5.37,9.34-5.37,3.7,0,9.43,1.83,9.43,10.69v19.93h-2.93V226.59c0-5.47-2.32-8.46-7.15-8.46-5.49,0-8.69,3.64-8.69,10.38v17.4h-2.94V202.17Z" transform="translate(-2.99)"/><path class="cls-2" d="M610.71,225.31c0-6.3-.06-8.16-.12-9.42h2.93c.07.6.19,4.1.13,5.25,1.26-2.93,3.85-5.85,9.17-5.85,5.07,0,9.6,2.55,9.6,11.45v19.17h-3V227c0-5-1.9-8.88-6.86-8.88-6.53,0-8.92,5.22-8.92,12.2v15.58h-2.94Z" transform="translate(-2.99)"/><path class="cls-2" d="M664.7,230.36c0,8.65-3.56,16-12.77,16-8.57,0-12.29-7.57-12.29-15.91,0-8.15,4.38-15.19,12.65-15.19C660,215.29,664.7,221.37,664.7,230.36Zm-21.94.18c0,7.24,3.22,13.13,9.47,13.13,6.72,0,9.3-5.71,9.3-13.31,0-6.88-3.16-12.35-9.42-12.35S642.76,223.31,642.76,230.54Z" transform="translate(-2.99)"/><path class="cls-2" d="M671.91,245.91V202.17h2.94v43.74Z" transform="translate(-2.99)"/><path class="cls-2" d="M707.12,230.36c0,8.65-3.56,16-12.77,16-8.57,0-12.29-7.57-12.29-15.91,0-8.15,4.38-15.19,12.65-15.19C702.44,215.29,707.12,221.37,707.12,230.36Zm-21.94.18c0,7.24,3.21,13.13,9.47,13.13,6.72,0,9.3-5.71,9.3-13.31,0-6.88-3.16-12.35-9.42-12.35S685.18,223.31,685.18,230.54Z" transform="translate(-2.99)"/><path class="cls-2" d="M736,244.08c0,9.42-3.72,14.42-12,14.42s-10.67-4.34-11.15-8.49h2.93c.78,4,4,5.83,8.23,5.83,7.39,0,9.12-5.05,9.12-12.33v-2.86c-1.56,3.7-4,5.6-9.34,5.6-7,0-11.42-6.05-11.42-15.36,0-9.84,5.18-15.6,12.2-15.6,4.74,0,7.6,2.09,8.44,4.88,0-1.65.12-3.51.18-4.28h2.93c-.06,1.38-.12,4.45-.12,8.48Zm-20.51-13.19c0,8,3.45,12.52,8.82,12.52,6.56,0,8.88-4.23,8.88-12.7,0-8.81-2.25-12.58-8.58-12.58C718.65,218.13,715.48,223.35,715.48,230.89Z" transform="translate(-2.99)"/><path class="cls-2" d="M744.76,215.89c5.42,15.72,8.11,23.21,9.06,26.93h.06c1-3,3.6-11.35,8.76-26.93h3.17l-10.68,31.4c-3,8.78-4.67,11.21-10.12,11.21a13.85,13.85,0,0,1-2.3-.18v-2.78a14.86,14.86,0,0,0,2.47.18c4.34,0,5.31-3.74,7.2-9.19l-10.86-30.64Z" transform="translate(-2.99)"/><path class="cls-2" d="M808.11,240a36.48,36.48,0,0,0,.48,5.93h-2.86a30.15,30.15,0,0,1-.42-5.31c-1.09,3.4-4.26,5.85-9.52,5.85-7.27,0-9.27-5.15-9.27-9.07s2.38-9.32,13.35-9.32h5.3v-3.39c0-3.11-.83-6.73-7-6.73-5,0-6.91,2.15-7.56,6.19h-2.93c.54-5.21,3.48-8.84,10.67-8.84,5.73,0,9.72,2.58,9.72,9Zm-2.87-9.34h-5.48c-8.52,0-10.12,3.45-10.12,6.67,0,3.51,2.13,6.36,6.43,6.36,6.68,0,9.17-4.53,9.17-12.43Z" transform="translate(-2.99)"/><path class="cls-2" d="M812.58,215.89h5.2v-9.11h2.93v9.11h6.52v2.66h-6.52v21c0,2.8.72,4,3.36,4a16.12,16.12,0,0,0,2.68-.23v2.52a10.05,10.05,0,0,1-3.34.49c-3.42,0-5.63-1.23-5.63-5.82v-22h-5.2Z" transform="translate(-2.99)"/><path class="cls-2" d="M851,204.28v26.51c0,7.79,3.14,12.82,11.09,12.82s10.9-4.79,10.9-12.88V204.28h3.24V231c0,8.82-3.61,15.54-14.26,15.54-9.43,0-14.14-4.9-14.14-15.07V204.28Z" transform="translate(-2.99)"/><path class="cls-2" d="M915.47,234.42c-1.32,6.37-5.41,12.09-14.62,12.09-11.61,0-16.17-9.07-16.17-21.88,0-10.47,4.82-20.95,16.41-20.95,8.52,0,13.13,5,14.2,12.33h-3.23c-1.19-5.77-4.57-9.48-11.09-9.48-9,0-13.05,8.54-13.05,18.15,0,9.27,3,19,13.05,19,6.58,0,9.72-3.54,11.33-9.24Z" transform="translate(-2.99)"/><path class="cls-2" d="M923.13,204.28h3.06v38.84h20.94l-.61,2.79H923.13Z" transform="translate(-2.99)"/><path class="cls-2" d="M958.66,231.49l-4.76,14.42h-3.17c4.42-13.12,9.13-26.74,14.07-41.63h3.76l14.6,41.63h-3.41l-4.83-14.42ZM974,228.64c-4.11-12.15-6.61-18.5-7.34-21.46h-.11c-1.26,5.09-3.59,11.45-6.92,21.46Z" transform="translate(-2.99)"/></g></g></svg>