<svg xmlns="http://www.w3.org/2000/svg" viewBox="0 0 174 174"><defs><style>.cls-1{fill:#fff;}</style></defs><title>Asset 4</title><g id="Layer_2" data-name="Layer 2"><g id="Layer_1-2" data-name="Layer 1"><polygon points="97.04 47.77 72.86 94.02 59.86 61.78 46.94 82 32.5 82 32.5 32.5 141.5 32.5 141.5 82 125.37 82 113.23 108.12 97.04 47.77"/><path class="cls-1" d="M141,33V81.5H125.06l-.27.58-11.43,24.58L97.85,48.87l-.66-2.47L96,48.67,72.92,92.83,60.69,62.49,60,60.69l-1,1.64L46.66,81.5H33V33H141m1-1H32V82.5H47.21L59.76,62.86l13,32.35L96.89,49.13l16.21,60.45L125.69,82.5H142V32Z"/><polygon points="32.5 141.5 32.5 89 50.88 89 58.41 77.22 72.01 110.98 94.88 67.23 111.42 128.88 129.96 89 141.5 89 141.5 141.5 32.5 141.5"/><path class="cls-1" d="M94.73,68.6l15.85,59.08.72,2.66,1.16-2.49L130.28,89.5H141V141H33V89.5H51.16l.29-.46,6.86-10.73,12.84,31.85.81,2,1-1.92L94.73,68.6m.3-2.73-23,43.92L58.52,76.14,50.61,88.5H32V142H142V88.5H129.64l-18.09,38.92L95,65.87Z"/><rect x="160.5" y="60" width="13" height="15"/><path class="cls-1" d="M173,60.5v14H161v-14h12m1-1H160v16h14v-16Z"/><rect x="99" y="0.5" width="15" height="13"/><path class="cls-1" d="M113.5,1V13h-14V1h14m1-1h-16V14h16V0Z"/><rect x="61" y="0.5" width="12" height="13"/><path class="cls-1" d="M72.5,1V13h-11V1h11m1-1h-13V14h13V0Z"/><path d="M160.5,53V25.75A12.26,12.26,0,0,0,148.25,13.5H121V.5h27.25A25.28,25.28,0,0,1,173.5,25.75V53Z"/><path class="cls-1" d="M148.25,1A24.77,24.77,0,0,1,173,25.75V52.5H161V25.75A12.76,12.76,0,0,0,148.25,13H121.5V1h26.75m0-1H120.5V14h27.75A11.75,11.75,0,0,1,160,25.75V53.5h14V25.75A25.78,25.78,0,0,0,148.25,0Z"/><rect x="160.5" y="82" width="13" height="12"/><path class="cls-1" d="M173,82.5v11H161v-11h12m1-1H160v13h14v-13Z"/><rect x="61" y="160.5" width="12" height="13"/><path class="cls-1" d="M72.5,161v12h-11V161h11m1-1h-13v14h13V160Z"/><rect x="160.5" y="101" width="13" height="12"/><path class="cls-1" d="M173,101.5v11H161v-11h12m1-1H160v13h14v-13Z"/><rect x="80" y="0.5" width="12" height="13"/><path class="cls-1" d="M91.5,1V13h-11V1h11m1-1h-13V14h13V0Z"/><path d="M25.75,173.5A25.28,25.28,0,0,1,.5,148.25V120h13v28.25A12.26,12.26,0,0,0,25.75,160.5H54v13Z"/><path class="cls-1" d="M13,120.5v27.75A12.76,12.76,0,0,0,25.75,161H53.5v12H25.75A24.77,24.77,0,0,1,1,148.25V120.5H13m1-1H0v28.75A25.78,25.78,0,0,0,25.75,174H54.5V160H25.75A11.75,11.75,0,0,1,14,148.25V119.5Z"/><rect x="0.5" y="60" width="13" height="15"/><path class="cls-1" d="M13,60.5v14H1v-14H13m1-1H0v16H14v-16Z"/><rect x="0.5" y="82" width="13" height="12"/><path class="cls-1" d="M13,82.5v11H1v-11H13m1-1H0v13H14v-13Z"/><path d="M121,173.5v-13h27.25a12.26,12.26,0,0,0,12.25-12.25V120h13v28.25a25.28,25.28,0,0,1-25.25,25.25Z"/><path class="cls-1" d="M173,120.5v27.75A24.77,24.77,0,0,1,148.25,173H121.5V161h26.75A12.76,12.76,0,0,0,161,148.25V120.5h12m1-1H160v28.75A11.75,11.75,0,0,1,148.25,160H120.5v14h27.75A25.78,25.78,0,0,0,174,148.25V119.5Z"/><rect x="0.5" y="101" width="13" height="12"/><path class="cls-1" d="M13,101.5v11H1v-11H13m1-1H0v13H14v-13Z"/><rect x="80" y="160.5" width="12" height="13"/><path class="cls-1" d="M91.5,161v12h-11V161h11m1-1h-13v14h13V160Z"/><rect x="99" y="160.5" width="15" height="13"/><path class="cls-1" d="M113.5,161v12h-14V161h14m1-1h-16v14h16V160Z"/><path d="M.5,53V25.75A25.28,25.28,0,0,1,25.75.5H54v13H25.75A12.26,12.26,0,0,0,13.5,25.75V53Z"/><path class="cls-1" d="M53.5,1V13H25.75A12.76,12.76,0,0,0,13,25.75V52.5H1V25.75A24.77,24.77,0,0,1,25.75,1H53.5m1-1H25.75A25.78,25.78,0,0,0,0,25.75V53.5H14V25.75A11.75,11.75,0,0,1,25.75,14H54.5V0Z"/></g></g></svg>