<svg xmlns="http://www.w3.org/2000/svg" viewBox="0 0 519.8 322.49"><defs><style>.cls-1{fill:#fff;}</style></defs><title>Asset 1</title><g id="Layer_2" data-name="Layer 2"><g id="CET-UCLA-Logo_Image" data-name="CET-UCLA-Logo Image"><path class="cls-1" d="M519.9,322.51H.1V0H519.9ZM276.7,85.66H244.76v17.88a10.69,10.69,0,0,1,2.05,0c1.94.4,2.8-.7,3.49-2.26s1.5-3,2.36-4.78c1.32,2.86,2.53,5.46,3.94,8.53,1.8-4.71,3.41-8.91,5-13.12H262c1.86,5.65,3.72,11.3,5.68,17.28,1-2.46,1.86-4.55,2.65-6.67a1.62,1.62,0,0,1,1.89-1.2c1.47.08,2.95,0,4.46,0Zm-32,35.78h32V103.55a14.59,14.59,0,0,1-1.88,0c-1.79-.25-2.72.29-3.31,2.21-1,3.28-2.5,6.41-4,10.1-2-6.07-3.82-11.64-5.82-17.72-1.72,4.52-3.25,8.51-4.92,12.9l-4.18-9.21a14.44,14.44,0,0,0-1.61,2.93c-.35,1.23-1.08,1.38-2.14,1.34-1.36-.06-2.72,0-4.1,0Zm-43,61.86c0-3.23,0-6.22.06-9.2,0-.4.76-1,1.22-1.09a29.75,29.75,0,0,1,3.78-.06h7.54v-4.37H201.86v-9.66h14.62v-4.78H197.2v33.67h19.31V183.3Zm50.88-29.2c0,.42-.08.77-.08,1.11,0,7.45-.06,14.9.07,22.35a10.61,10.61,0,0,0,13.65,10.19c4.92-1.28,7.94-5.42,8-11.16.06-7.15,0-14.3,0-21.44a8.21,8.21,0,0,0-.11-1h-4.47v2.26c0,7,0,13.93-.13,20.9A6,6,0,0,1,265,183c-2.77.74-5.38-.12-6.72-2.68a11.92,11.92,0,0,1-1.25-5c-.16-4.8-.06-9.61-.06-14.41V154.1Zm98.71,33.75-11.13-33.78h-3.77c-3.7,11.24-7.39,22.47-11.15,33.88a33.33,33.33,0,0,1,3.37,0c1.11.12,1.59-.35,1.88-1.35.59-2.07,1.26-4.11,1.91-6.22h11.74c.4,1.24.8,2.42,1.18,3.62C346.66,188.16,346.65,188.16,351.32,187.85ZM193.44,163.79c-.92-5.95-4.63-8.93-9-9.94-3.33-.77-6.22.57-8.48,2.73-1.52,1.45-3.13,3.55-3.31,5.49a146,146,0,0,0-.4,16.87,9.26,9.26,0,0,0,3.55,6.63c3.29,2.83,7.18,3.16,11.17,1.81s5.55-4.75,6.56-8.76a20,20,0,0,1-2.47,0,3,3,0,0,0-3.44,1.82,5,5,0,0,1-2.07,2.09,5.78,5.78,0,0,1-8.61-4.5,109.47,109.47,0,0,1-.23-12.94,7.25,7.25,0,0,1,.93-3.06c1.08-2.15,3-3,5.33-3s4.14.9,4.95,2.93c.62,1.57,1.41,2,2.91,1.84A25,25,0,0,1,193.44,163.79ZM301,178.62a20.15,20.15,0,0,1-2.48,0,3,3,0,0,0-3.43,1.83,4.77,4.77,0,0,1-1.92,2c-3.61,2-8.21.1-8.68-4.09a81.75,81.75,0,0,1-.07-14.34,5.28,5.28,0,0,1,4.94-4.91c3.25-.33,4.91.65,6.43,3.67.21.41.68.94,1.07,1,1.33.12,2.67,0,4,0-.92-6-4.64-8.93-9-9.94-3.33-.77-6.22.57-8.48,2.73-1.52,1.45-3.12,3.56-3.3,5.5a145.86,145.86,0,0,0-.4,16.86,9.27,9.27,0,0,0,3.55,6.64c3.29,2.83,7.18,3.15,11.17,1.79S300,182.62,301,178.62Zm3.66-24.52v33.73H324V183.2H309.17V154.1Zm-78.08,4.65v29.12h4.44v-29.2h8.42v-4.55H218.15v4.63ZM236.37,115v1.59c0,2.46-.1,4.92,0,7.38.21,3.64,2.28,6.16,5.74,6.55a72.62,72.62,0,0,0,8.22.07V126.2c-2.44,0-4.77,0-7.1,0-2.17,0-2.88-.73-2.88-2.92,0-2.74,0-5.48,0-8.31Zm44.7,0c0,2.86,0,5.56,0,8.25,0,2.29-.69,3-3,3h-7v4.39c2.68,0,5.27.18,7.81-.05a5.8,5.8,0,0,0,5.15-3.32c1.88-4,.63-8.11,1.08-12.26Zm4-22.82V84.55c0-.36,0-.72,0-1.08-.33-3.76-2.55-6.57-5.88-6.89-2.66-.26-5.37,0-8.12,0V80.9h6.55c2.87,0,3.45.58,3.45,3.48,0,2.56,0,5.12,0,7.76ZM250.39,76.51c-2.72,0-5.36-.13-8,0a6.13,6.13,0,0,0-5.56,4.83c-.47,3.53-.45,7.11-.65,10.69h4.17c0-2.73,0-5.31,0-7.89s.64-3.28,3.29-3.28c2.25,0,4.5,0,6.72,0Zm4.41,144c-.46,1.44-.08,3-1.75,3.64s-3.11.33-4.39-1.46c0,2.05,1.25,2.21,2.36,2.41,1.9.34,3.88-.48,4-1.88.35-3.4.41-6.83.59-10.25-.9.19-1.45.51-1.82.36-3.48-1.41-5.47-.26-5.76,3.44-.26,3.27,1.58,5.3,4.41,4.74A13.4,13.4,0,0,0,254.8,220.46Zm-21.23.17c-.83,1.35-1.23,2.72-2.14,3.36-1.53,1.06-3.1.38-4.43-1.22.36,1.77,1,2.26,2.83,2.33,2,.08,3.5-.69,3.64-2.21.3-3.3.35-6.63.49-9.55a14,14,0,0,1-2.33-.39,3.5,3.5,0,0,0-3.74.33c-1.81,1.54-1.71,3.69-1.17,5.65.27,1,1.45,1.71,2.25,2.52.13.13.47.11.7.07C230.74,221.29,231.8,221,233.57,220.63Zm100-7.58c-.92.09-1.52.35-1.93.17-3.34-1.5-5.85.24-5.67,4,.16,3.24,1.68,4.76,4.39,4.26a11.12,11.12,0,0,0,2.09-.89l.45.22c-.57,1.07-.88,2.48-1.76,3.13-1.55,1.14-3.18.47-4.54-.87.31,1.81,1.67,2,3,2,1.55,0,3.23-.36,3.42-2.22C333.36,219.59,333.39,216.29,333.55,213.05Zm-142.88-3.62V221.3h7v-.55h-6v-5.08H197l.09-.65c-1.66-.93-3.73.07-5.44-.57V210h5.74l0-.52ZM404.9,221.65l.74-.38c-1.44-3.76-2.87-7.52-4.34-11.27-.11-.28-.51-.71-.66-.67a1.44,1.44,0,0,0-.86.7c-.52,1.21-.95,2.45-1.4,3.69q-1.36,3.81-2.72,7.62l.47.25a8.4,8.4,0,0,0,.82-1.25c1.19-2.8,1.18-2.8,4.26-2.8a4.31,4.31,0,0,0,.72,0c1.12-.18,1.58.35,1.85,1.4A20.5,20.5,0,0,0,404.9,221.65Zm-204.45-8.71v8.48l.57,0c0-1,0-1.94,0-2.91a13.76,13.76,0,0,1,.42-3.71,2.5,2.5,0,0,1,1.93-1.39c.57,0,1.37,1.09,1.51,1.8a23.58,23.58,0,0,1,.09,4c0,.76.1,1.52.15,2.28l.61,0c0-.67,0-1.35,0-2a21.87,21.87,0,0,1,.4-4.45,2.76,2.76,0,0,1,2-1.59c1.07-.12,1.6.81,1.58,1.95,0,1.75,0,3.49,0,5.23a3.94,3.94,0,0,0,.3,1,32.63,32.63,0,0,0,.36-7.22c-.08-1.33-1.49-2-2.89-1.54a18.83,18.83,0,0,0-2,.95C204.34,211,202.2,213.9,200.45,212.94Zm184.22.26.56-.53c-.27-2-1.22-3.12-3-3.42a4.65,4.65,0,0,0-5.1,2.13A8.91,8.91,0,0,0,377,219c.8,2,2.83,3,5.37,2.48,1.85-.35,3-1.79,3.08-4.46a10.2,10.2,0,0,0-1,1.6,3.15,3.15,0,0,1-3.5,2.17c-1.62-.06-2.86-.77-3.12-2.4a15,15,0,0,1-.24-5.07c.27-1.51,1-3.11,3-3.36a3.21,3.21,0,0,1,3.88,2.35C384.52,212.61,384.59,212.91,384.67,213.2Zm-259.29-.31c.13-.24.24-.35.22-.44a3.66,3.66,0,0,0-3.3-3.22c-2.31-.25-4.27.48-4.8,2.25a15.6,15.6,0,0,0-.81,5.56c.21,3.07,2,4.53,4.75,4.51s3.87-1.15,4.17-4a2.17,2.17,0,0,0-.88,1,3.22,3.22,0,0,1-3.63,2.26,2.9,2.9,0,0,1-3.08-2.47,15,15,0,0,1-.19-5.07c.29-1.5,1.06-3.1,3.07-3.3,1.83-.17,3.15.41,3.77,2.26C124.76,212.48,125.12,212.65,125.38,212.89ZM354,221.68c0-2.5,0-4.74,0-7,0-1.79-1.42-2.15-2.77-2.12s-3,.22-3.33,2c0,.21.18.48.32.82,1.12-2,2.28-2.75,3.73-2.09a2.85,2.85,0,0,1,1.21,1.87c.06.3-.77,1-1.3,1.17-.83.31-1.78.27-2.62.54a2.29,2.29,0,0,0-1.71,2.62,2,2,0,0,0,2.35,1.94,26,26,0,0,0,3.51-.83Zm12.23-12.36-.89,0c.17,3.36.2,6.74.6,10.08.19,1.58,1.91,2.18,4.28,2.09,1.7-.06,3.16-.79,3.29-2.46.26-3.2.1-6.44.11-9.66a6.28,6.28,0,0,0-.64-.13c0,.74,0,1.43,0,2.11-.09,2.4-.1,4.8-.31,7.18-.16,1.81-1.51,2.26-3.11,2.24s-2.79-.61-2.92-2.28c-.19-2.45-.19-4.91-.28-7.37C366.35,210.55,366.28,209.94,366.24,209.32Zm-146.56,7.84c-.1-.75-.17-1.34-.26-1.93a2.84,2.84,0,0,0-2.94-2.59c-1.55-.1-3,.49-3.37,2.08a10.4,10.4,0,0,0,0,4.71c.23.85,1.48,1.66,2.44,2a2.78,2.78,0,0,0,3.34-1.09,5.5,5.5,0,0,0,.43-1.57l-.45-.22c-.5,1.87-1.64,2.75-3.46,2.21s-1.87-1.93-1.74-3.6Zm57.13,1.55c-.75,1.64-1.82,2.62-3.66,2s-1.87-1.93-1.75-3.6h6l-.26-1.93a2.93,2.93,0,0,0-2.95-2.61,3.09,3.09,0,0,0-3.44,2.26,13.82,13.82,0,0,0,0,4.4c.28,1.7,2.25,2.67,4.14,2.19C276.22,221.14,277.17,220.35,276.81,218.71Zm12-5v-4.36l-.41,0v12l.5,0c.05-.72.08-1.43.13-2.15a18.41,18.41,0,0,1,.43-4.43,3,3,0,0,1,2.3-1.45c.52,0,1.43,1.18,1.54,1.93a40,40,0,0,1,.16,5,5.48,5.48,0,0,0,.25,1.12l.45-.08c0-2.22.11-4.46,0-6.68-.11-1.71-1.58-2.52-3.27-2A19.58,19.58,0,0,0,288.8,213.69Zm-154.25,3.49c-.1-.74-.18-1.33-.25-1.92a2.84,2.84,0,0,0-2.92-2.61c-1.55-.11-3,.45-3.39,2a10.41,10.41,0,0,0,0,4.71,4,4,0,0,0,2.42,2,2.79,2.79,0,0,0,3.35-1.07,5.21,5.21,0,0,0,.46-1.57l-.44-.26c-.52,1.84-1.62,2.76-3.45,2.23s-1.89-1.91-1.77-3.58Zm21.66,0c-.12-.83-.2-1.36-.26-1.89a2.9,2.9,0,0,0-2.88-2.67c-1.56-.2-3.27.72-3.5,2.16a11.11,11.11,0,0,0,0,4.56,3.49,3.49,0,0,0,2.38,2,6.59,6.59,0,0,0,3.38-1c.34-.17.35-1,.52-1.55l-.41-.25c-.6,1.7-1.6,2.75-3.46,2.22s-1.91-1.92-1.85-3.58Zm19.18,4.34c2.31,0,3.55-1.58,3.53-4.45s-1.41-4.56-3.73-4.53c-2,0-3.38,1.9-3.38,4.53S173.17,221.56,175.39,221.54Zm133.1,0c2.32,0,3.56-1.58,3.54-4.45s-1.41-4.56-3.73-4.53c-2,0-3.38,1.9-3.38,4.53S306.28,221.56,308.49,221.54Zm12.26,0c2.32,0,3.56-1.57,3.55-4.44s-1.41-4.57-3.73-4.54c-2,0-3.38,1.89-3.39,4.52S318.54,221.56,320.75,221.54Zm-183.84-8.37v8.25a1.65,1.65,0,0,0,.6-1.28c.1-1.67.1-3.34.29-5a2.06,2.06,0,0,1,2.46-1.83c1.2.12,1.63,1,1.62,2.2,0,1.62,0,3.24.06,4.85a5.51,5.51,0,0,0,.26,1.12l.49-.07c0-2,.13-4.1,0-6.12-.2-2.56-1.79-3.34-4.12-2.26A5.62,5.62,0,0,1,136.91,213.17Zm201.62,7c-1.43-2.54-1.56-5.29-3.28-7.25a62.32,62.32,0,0,0,2.21,7.19c.81,2.23.26,3.59-2.28,4.54,1.48.72,2.32.29,2.81-.72a33.82,33.82,0,0,0,1.4-3.67c.86-2.43,1.69-4.87,2.54-7.3l-.59-.23C340.45,215.11,339.55,217.49,338.53,220.18Zm-93.26,1.31.56,0c0-2.14.12-4.29,0-6.42s-1.73-2.95-3.68-2.21a17.54,17.54,0,0,1-2.26.51c.1,2.48-.35,5.31.52,8.08a9.44,9.44,0,0,0,.31-2.62,12,12,0,0,1,.4-3.87,3.36,3.36,0,0,1,2.43-1.5c.42-.05,1.32,1.23,1.44,2a34.36,34.36,0,0,1,.14,4.66C245.12,220.56,245.21,221,245.27,221.49Zm56.94,0,.62-.05c0-2.1.12-4.21,0-6.31-.17-2.26-1.87-3.07-4-2.16a6.07,6.07,0,0,1-1.76.22v8.26h.6c0-.74,0-1.47,0-2.2.07-1.37.09-2.75.28-4.1a2.08,2.08,0,0,1,2.48-1.81c1.19.13,1.63,1,1.6,2.21s0,2.28,0,3.42C302.12,219.79,302.17,220.63,302.21,221.46ZM256.45,80.84V76.63h-3.68v4.21Zm2.43-4.26V80.8h3.68V76.58Zm9.8,53.93V126.3h-3.74v4.21Zm-9.85-.06h3.74v-4.16h-3.74Zm-2.31-4.1h-3.8v4.14h3.8ZM268.7,80.84V76.63H265v4.21Zm-3.81,140.6h.64V210.36l3.57-.4-.06-.51h-7.72l-.05.52,3.62.39Zm20.7-5.71c.07-2-.58-2.7-2.35-3.06s-3.43.43-3.78,1.94a10.94,10.94,0,0,0-.19,4c.36,2.38,2,3.33,4.26,2.85,1.54-.32,2.48-1.73,1.89-2.86a7.68,7.68,0,0,1-1.19,1.68,2.39,2.39,0,0,1-3.41-.13c-1.16-1.08-1.2-4.85-.12-6.08a2.57,2.57,0,0,1,3.57-.25A13.26,13.26,0,0,1,285.59,215.73Zm-.67-103.51v-4.06h-3.71v4.06Zm-44.69,0v-4.07h-3.72v4.07Zm40.91-6.51H285v-4h-3.81Zm-40.92,0v-4h-3.7v4ZM285,94.93h-3.81v3.95H285Zm-44.73,4v-4h-3.8v4ZM359.51,221.09c-1.75,0-1.9-1.17-1.7-2.23.36-2-1.22-4.38,1.31-6-2.36.13-.7-2.13-1.85-2.92l-.91,3.19a4.4,4.4,0,0,1,.49,1.36c.08,1.68,0,3.36.06,5S357.53,221.62,359.51,221.09ZM148,221.27c-2.87-1.6-1.28-4.17-1.6-6.22-.1-.66.52-1.42.78-2.07-1.79.12-.26-2.14-1.33-3.06l-.91,3.22a4.63,4.63,0,0,1,.49,1.39c.07,1.68,0,3.36.05,5S146.17,221.63,148,221.27Zm240.31,0h6.33l0-.54h-5.49c-.2-4,.1-7.72-.18-11.41l-.64,0Zm-219.7.16.59,0c0-2.18-.06-4.36,0-6.54a6.75,6.75,0,0,1,.83-2c-.06-.06-.66-.37-.82-.84-.59-1.75,1-2,2.34-2.53-2.61-.47-2.91-.21-3.24,2a4.64,4.64,0,0,1-.74,1.48C169.35,215.58,167.69,218.74,168.65,221.42Zm53.36,0h.66c0-1.56,0-3.12,0-4.68.05-2.63.33-2.94,2.81-3.3.05,0,.08-.2.3-.77l-3.77.56Zm-40.7-8v8a1.54,1.54,0,0,0,.58-1.23c0-1.5,0-3,.09-4.49s.66-2.44,2.38-2.15c.16,0,.36-.18.54-.27l-.05-.46a14.7,14.7,0,0,0-1.88,0A10,10,0,0,0,181.31,213.39Zm-19.22-.11-.07-.52-3.4.43v8.25h.56c0-1.34,0-2.67,0-4C159.19,214.17,159.27,214.05,162.09,213.28Zm152.73-3.93h-.37v12.07h.37Zm-78.37,12.07h.4V212.9h-.4Z" transform="translate(-0.1 -0.02)"/><path d="M276.7,85.66v15.7c-1.51,0-3,.06-4.46,0a1.62,1.62,0,0,0-1.89,1.2c-.79,2.12-1.67,4.21-2.65,6.67-2-6-3.82-11.63-5.68-17.28h-.39c-1.62,4.21-3.23,8.41-5,13.12-1.41-3.07-2.62-5.67-3.94-8.53-.86,1.73-1.68,3.22-2.36,4.78s-1.55,2.66-3.49,2.26a10.69,10.69,0,0,0-2.05,0V85.66Z" transform="translate(-0.1 -0.02)"/><path d="M244.73,121.44V106.07c1.38,0,2.74,0,4.1,0,1.06,0,1.79-.11,2.14-1.34a14.44,14.44,0,0,1,1.61-2.93l4.18,9.21c1.67-4.39,3.2-8.38,4.92-12.9,2,6.08,3.82,11.65,5.82,17.72,1.49-3.69,3-6.82,4-10.1.59-1.92,1.52-2.46,3.31-2.21a14.59,14.59,0,0,0,1.88,0v17.89Z" transform="translate(-0.1 -0.02)"/><path d="M201.73,183.3h14.78v4.51H197.2V154.14h19.28v4.78H201.86v9.66h12.47V173h-7.54A29.75,29.75,0,0,0,203,173c-.46.06-1.21.69-1.22,1.09C201.69,177.08,201.73,180.07,201.73,183.3Z" transform="translate(-0.1 -0.02)"/><path d="M252.61,154.1H257V161c0,4.8-.1,9.61.06,14.41a11.92,11.92,0,0,0,1.25,5c1.34,2.56,4,3.42,6.72,2.68a6,6,0,0,0,4.54-5.72c.11-7,.09-13.93.13-20.9v-2.26h4.47a8.21,8.21,0,0,1,.11,1c0,7.14.05,14.29,0,21.44,0,5.74-3.06,9.88-8,11.16a10.61,10.61,0,0,1-13.65-10.19c-.13-7.45-.06-14.9-.07-22.35C252.53,154.87,252.58,154.52,252.61,154.1Z" transform="translate(-0.1 -0.02)"/><path d="M351.32,187.85c-4.67.31-4.66.31-6-3.82-.38-1.2-.78-2.38-1.18-3.62H332.43c-.65,2.11-1.32,4.15-1.91,6.22-.29,1-.77,1.47-1.88,1.35a33.33,33.33,0,0,0-3.37,0c3.76-11.41,7.45-22.64,11.15-33.88h3.77Zm-8.56-12.13c-1.47-4.88-2.89-9.62-4.45-14.81-1.56,5.24-3,10-4.41,14.81Z" transform="translate(-0.1 -0.02)"/><path d="M193.44,163.79a25,25,0,0,0-2.61,0c-1.5.17-2.29-.27-2.91-1.84-.81-2-2.7-2.94-4.95-2.93s-4.25.82-5.33,3a7.25,7.25,0,0,0-.93,3.06,109.47,109.47,0,0,0,.23,12.94,5.78,5.78,0,0,0,8.61,4.5,5,5,0,0,0,2.07-2.09,3,3,0,0,1,3.44-1.82,20,20,0,0,0,2.47,0c-1,4-2.54,7.39-6.56,8.76s-7.88,1-11.17-1.81a9.26,9.26,0,0,1-3.55-6.63,146,146,0,0,1,.4-16.87c.18-1.94,1.79-4,3.31-5.49,2.26-2.16,5.15-3.5,8.48-2.73C188.81,154.86,192.52,157.84,193.44,163.79Z" transform="translate(-0.1 -0.02)"/><path d="M301,178.62c-1,4-2.53,7.39-6.56,8.75s-7.88,1-11.17-1.79a9.27,9.27,0,0,1-3.55-6.64,145.86,145.86,0,0,1,.4-16.86c.18-1.94,1.78-4.05,3.3-5.5,2.26-2.16,5.15-3.5,8.48-2.73,4.36,1,8.08,4,9,9.94-1.37,0-2.71.07-4,0-.39,0-.86-.56-1.07-1-1.52-3-3.18-4-6.43-3.67a5.28,5.28,0,0,0-4.94,4.91,81.75,81.75,0,0,0,.07,14.34c.47,4.19,5.07,6.11,8.68,4.09a4.77,4.77,0,0,0,1.92-2,3,3,0,0,1,3.43-1.83A20.15,20.15,0,0,0,301,178.62Z" transform="translate(-0.1 -0.02)"/><path d="M304.69,154.1h4.48v29.1H324v4.63H304.69Z" transform="translate(-0.1 -0.02)"/><path d="M226.61,158.75h-8.46v-4.63h21.32v4.55h-8.42v29.2h-4.44Z" transform="translate(-0.1 -0.02)"/><path d="M236.37,115h4c0,2.83,0,5.57,0,8.31,0,2.19.71,2.91,2.88,2.92,2.33,0,4.66,0,7.1,0v4.35a72.62,72.62,0,0,1-8.22-.07c-3.46-.39-5.53-2.91-5.74-6.55-.13-2.46,0-4.92,0-7.38Z" transform="translate(-0.1 -0.02)"/><path d="M281.07,115h4c-.45,4.15.8,8.27-1.08,12.26a5.8,5.8,0,0,1-5.15,3.32c-2.54.23-5.13.05-7.81.05V126.2h7c2.31,0,3-.69,3-3C281.07,120.52,281.07,117.82,281.07,115Z" transform="translate(-0.1 -0.02)"/><path d="M285.07,92.14h-4c0-2.64,0-5.2,0-7.76,0-2.9-.58-3.48-3.45-3.48h-6.55V76.53c2.75,0,5.46-.21,8.12,0,3.33.32,5.55,3.13,5.88,6.89,0,.36,0,.72,0,1.08Z" transform="translate(-0.1 -0.02)"/><path d="M250.39,76.51V80.9c-2.22,0-4.47,0-6.72,0-2.65,0-3.28.62-3.29,3.28s0,5.16,0,7.89H236.2c.2-3.58.18-7.16.65-10.69a6.13,6.13,0,0,1,5.56-4.83C245,76.38,247.67,76.51,250.39,76.51Z" transform="translate(-0.1 -0.02)"/><path d="M254.8,220.46a13.4,13.4,0,0,1-2.33,1c-2.83.56-4.67-1.47-4.41-4.74.29-3.7,2.28-4.85,5.76-3.44.37.15.92-.17,1.82-.36-.18,3.42-.24,6.85-.59,10.25-.15,1.4-2.13,2.22-4,1.88-1.11-.2-2.4-.36-2.36-2.41,1.28,1.79,2.7,2.14,4.39,1.46S254.34,221.9,254.8,220.46Zm-.23-3c-.09-.75-.12-1.23-.22-1.69-.28-1.44-1.06-2.44-2.62-2.42a2.45,2.45,0,0,0-2.56,2.46,7.61,7.61,0,0,0,.31,3.47,2.92,2.92,0,0,0,2.14,1.46,3.37,3.37,0,0,0,2.35-1.18C254.45,219,254.43,218,254.57,217.47Z" transform="translate(-0.1 -0.02)"/><path d="M233.57,220.63c-1.77.4-2.83.66-3.9.89-.23,0-.57.06-.7-.07-.8-.81-2-1.54-2.25-2.52-.54-2-.64-4.11,1.17-5.65a3.5,3.5,0,0,1,3.74-.33,14,14,0,0,0,2.33.39c-.14,2.92-.19,6.25-.49,9.55-.14,1.52-1.68,2.29-3.64,2.21-1.79-.07-2.47-.56-2.83-2.33,1.33,1.6,2.9,2.28,4.43,1.22C232.34,223.35,232.74,222,233.57,220.63Zm-.66-3.23c-.07-.64-.1-1.06-.17-1.47-.27-1.5-1-2.59-2.67-2.57a2.46,2.46,0,0,0-2.55,2.47,7.78,7.78,0,0,0,.32,3.48,2.83,2.83,0,0,0,2.15,1.43,3.81,3.81,0,0,0,2.43-1.34C232.86,218.9,232.8,218,232.91,217.4Z" transform="translate(-0.1 -0.02)"/><path d="M333.55,213.05c-.16,3.24-.19,6.54-.52,9.81-.19,1.86-1.87,2.2-3.42,2.22-1.36,0-2.72-.21-3-2,1.36,1.34,3,2,4.54.87.88-.65,1.19-2.06,1.76-3.13l-.45-.22a11.12,11.12,0,0,1-2.09.89c-2.71.5-4.23-1-4.39-4.26-.18-3.75,2.33-5.49,5.67-4C332,213.4,332.63,213.14,333.55,213.05Zm-.71,4.52-.36-.27c-.1-.59-.18-1.18-.29-1.76a2.41,2.41,0,0,0-2.61-2.17,2.25,2.25,0,0,0-2.4,2.18,12.11,12.11,0,0,0,.15,3.66,2.3,2.3,0,0,0,3.45,1.38C331.7,219.89,332.17,218.6,332.84,217.57Z" transform="translate(-0.1 -0.02)"/><path d="M190.67,209.43h6.71l0,.52h-5.74v4.5c1.71.64,3.78-.36,5.44.57l-.09.65h-5.29v5.08h6v.55h-7Z" transform="translate(-0.1 -0.02)"/><path d="M404.9,221.65a20.5,20.5,0,0,1-1.12-2.72c-.27-1.05-.73-1.58-1.85-1.4a4.31,4.31,0,0,1-.72,0c-3.08,0-3.07,0-4.26,2.8a8.4,8.4,0,0,1-.82,1.25l-.47-.25q1.35-3.81,2.72-7.62c.45-1.24.88-2.48,1.4-3.69a1.44,1.44,0,0,1,.86-.7c.15,0,.55.39.66.67,1.47,3.75,2.9,7.51,4.34,11.27Zm-6.52-5h4.4l-2.25-6.15C399.75,212.73,399.09,214.6,398.38,216.63Z" transform="translate(-0.1 -0.02)"/><path d="M200.45,212.94c1.75,1,3.89-2,5.05.75a18.83,18.83,0,0,1,2-.95c1.4-.46,2.81.21,2.89,1.54a32.63,32.63,0,0,1-.36,7.22,3.94,3.94,0,0,1-.3-1c0-1.74,0-3.48,0-5.23,0-1.14-.51-2.07-1.58-1.95a2.76,2.76,0,0,0-2,1.59,21.87,21.87,0,0,0-.4,4.45c0,.67,0,1.35,0,2l-.61,0c0-.76-.13-1.52-.15-2.28a23.58,23.58,0,0,0-.09-4c-.14-.71-.94-1.75-1.51-1.8a2.5,2.5,0,0,0-1.93,1.39,13.76,13.76,0,0,0-.42,3.71c-.05,1,0,1.94,0,2.91l-.57,0Z" transform="translate(-0.1 -0.02)"/><path d="M384.67,213.2c-.08-.29-.15-.59-.25-.88a3.21,3.21,0,0,0-3.88-2.35c-2,.25-2.73,1.85-3,3.36a15,15,0,0,0,.24,5.07c.26,1.63,1.5,2.34,3.12,2.4a3.15,3.15,0,0,0,3.5-2.17,10.2,10.2,0,0,1,1-1.6c-.1,2.67-1.23,4.11-3.08,4.46-2.54.48-4.57-.47-5.37-2.48a8.91,8.91,0,0,1,.21-7.63,4.65,4.65,0,0,1,5.1-2.13c1.73.3,2.68,1.4,3,3.42Z" transform="translate(-0.1 -0.02)"/><path d="M125.38,212.89c-.26-.24-.62-.41-.71-.67-.62-1.85-1.94-2.43-3.77-2.26-2,.2-2.78,1.8-3.07,3.3a15,15,0,0,0,.19,5.07,2.9,2.9,0,0,0,3.08,2.47,3.22,3.22,0,0,0,3.63-2.26,2.17,2.17,0,0,1,.88-1c-.3,2.84-1.55,4-4.17,4s-4.54-1.44-4.75-4.51a15.6,15.6,0,0,1,.81-5.56c.53-1.77,2.49-2.5,4.8-2.25a3.66,3.66,0,0,1,3.3,3.22C125.62,212.54,125.51,212.65,125.38,212.89Z" transform="translate(-0.1 -0.02)"/><path d="M354,221.68l-.62-1a26,26,0,0,1-3.51.83,2,2,0,0,1-2.35-1.94,2.29,2.29,0,0,1,1.71-2.62c.84-.27,1.79-.23,2.62-.54.53-.2,1.36-.87,1.3-1.17a2.85,2.85,0,0,0-1.21-1.87c-1.45-.66-2.61.06-3.73,2.09-.14-.34-.37-.61-.32-.82.38-1.83,1.92-2,3.33-2s2.73.33,2.77,2.12C354.05,216.94,354,219.18,354,221.68Zm-.88-4.79a15.8,15.8,0,0,0-3.38.79,2.4,2.4,0,0,0-1.1,1.85c0,.44,1,1.15,1.58,1.21C352.21,221,353.17,219.64,353.13,216.89Z" transform="translate(-0.1 -0.02)"/><path d="M366.24,209.32c0,.62.11,1.23.13,1.84.09,2.46.09,4.92.28,7.37.13,1.67,1.34,2.26,2.92,2.28s2.95-.43,3.11-2.24c.21-2.38.22-4.78.31-7.18,0-.68,0-1.37,0-2.11a6.28,6.28,0,0,1,.64.13c0,3.22.15,6.46-.11,9.66-.13,1.67-1.59,2.4-3.29,2.46-2.37.09-4.09-.51-4.28-2.09-.4-3.34-.43-6.72-.6-10.08Z" transform="translate(-0.1 -0.02)"/><path d="M219.68,217.16h-6c-.13,1.67,0,3.08,1.74,3.6s3-.34,3.46-2.21l.45.22a5.5,5.5,0,0,1-.43,1.57,2.78,2.78,0,0,1-3.34,1.09c-1-.34-2.21-1.15-2.44-2a10.4,10.4,0,0,1,0-4.71c.34-1.59,1.82-2.18,3.37-2.08a2.84,2.84,0,0,1,2.94,2.59C219.51,215.82,219.58,216.41,219.68,217.16Zm-1-.81c-.07-1.79-.62-3.08-2.47-3s-2.37,1.33-2.45,3Z" transform="translate(-0.1 -0.02)"/><path d="M276.81,218.71c.36,1.64-.59,2.43-1.94,2.76-1.89.48-3.86-.49-4.14-2.19a13.82,13.82,0,0,1,0-4.4,3.09,3.09,0,0,1,3.44-2.26,2.93,2.93,0,0,1,2.95,2.61l.26,1.93h-6c-.12,1.67,0,3.07,1.75,3.6S276.06,220.35,276.81,218.71Zm-.51-2.34c-.16-2.16-.84-3.06-2.3-3.08s-2.29.93-2.52,3.08Z" transform="translate(-0.1 -0.02)"/><path d="M288.8,213.69a19.58,19.58,0,0,1,2-.94c1.69-.54,3.16.27,3.27,2,.15,2.22,0,4.46,0,6.68l-.45.08a5.48,5.48,0,0,1-.25-1.12,40,40,0,0,0-.16-5c-.11-.75-1-1.94-1.54-1.93a3,3,0,0,0-2.3,1.45,18.41,18.41,0,0,0-.43,4.43c0,.72-.08,1.43-.13,2.15l-.5,0v-12l.41,0Z" transform="translate(-0.1 -0.02)"/><path d="M134.55,217.18h-6c-.12,1.67,0,3.08,1.77,3.58s2.93-.39,3.45-2.23l.44.26a5.21,5.21,0,0,1-.46,1.57,2.79,2.79,0,0,1-3.35,1.07,4,4,0,0,1-2.42-2,10.41,10.41,0,0,1,0-4.71c.35-1.59,1.84-2.15,3.39-2a2.84,2.84,0,0,1,2.92,2.61C134.37,215.85,134.45,216.44,134.55,217.18Zm-1-.83c-.07-1.79-.62-3.08-2.47-3s-2.37,1.33-2.45,3Z" transform="translate(-0.1 -0.02)"/><path d="M156.21,217.2h-6c-.06,1.66.08,3.08,1.85,3.58s2.86-.52,3.46-2.22l.41.25c-.17.54-.18,1.38-.52,1.55a6.59,6.59,0,0,1-3.38,1,3.49,3.49,0,0,1-2.38-2,11.11,11.11,0,0,1,0-4.56c.23-1.44,1.94-2.36,3.5-2.16a2.9,2.9,0,0,1,2.88,2.67C156,215.84,156.09,216.37,156.21,217.2Zm-1.1-.81c-.2-2.22-.89-3.1-2.35-3.1s-2.3,1-2.44,3.1Z" transform="translate(-0.1 -0.02)"/><path d="M175.39,221.54c-2.22,0-3.58-1.68-3.58-4.45s1.4-4.5,3.38-4.53c2.32,0,3.72,1.66,3.73,4.53S177.7,221.52,175.39,221.54ZM178,217c-.13-.59-.28-1.17-.36-1.75a2.3,2.3,0,0,0-4.54,0,12.19,12.19,0,0,0,.16,4,2.68,2.68,0,0,0,2.1,1.42,3.31,3.31,0,0,0,2.14-1.43A6,6,0,0,0,178,217Z" transform="translate(-0.1 -0.02)"/><path d="M308.49,221.54c-2.21,0-3.57-1.68-3.57-4.45s1.39-4.5,3.38-4.53c2.32,0,3.72,1.66,3.73,4.53S310.81,221.52,308.49,221.54Zm2.65-4.51c-.12-.56-.26-1.14-.35-1.72a2.3,2.3,0,0,0-4.54,0,9.7,9.7,0,0,0,.06,3.65,3.51,3.51,0,0,0,2.2,1.84c1.17.31,2-.56,2.27-1.76C310.93,218.36,311,217.72,311.14,217Z" transform="translate(-0.1 -0.02)"/><path d="M320.75,221.54c-2.21,0-3.57-1.69-3.57-4.46s1.41-4.49,3.39-4.52c2.32,0,3.72,1.67,3.73,4.54S323.07,221.52,320.75,221.54Zm2.64-4.5c-.09-.55-.17-1-.25-1.49-.23-1.33-.93-2.24-2.35-2.22a2.24,2.24,0,0,0-2.38,2.2,7.78,7.78,0,0,0,.18,3.48,3.17,3.17,0,0,0,2.27,1.7c.69,0,1.59-.94,2.13-1.66C323.37,218.53,323.28,217.68,323.39,217Z" transform="translate(-0.1 -0.02)"/><path d="M136.91,213.17a5.62,5.62,0,0,0,1.63-.13c2.33-1.08,3.92-.3,4.12,2.26.16,2,0,4.08,0,6.12l-.49.07a5.51,5.51,0,0,1-.26-1.12c-.05-1.61-.08-3.23-.06-4.85,0-1.18-.42-2.08-1.62-2.2a2.06,2.06,0,0,0-2.46,1.83c-.19,1.65-.19,3.32-.29,5a1.65,1.65,0,0,1-.6,1.28Z" transform="translate(-0.1 -0.02)"/><path d="M338.53,220.18c1-2.69,1.92-5.07,2.81-7.44l.59.23c-.85,2.43-1.68,4.87-2.54,7.3a33.82,33.82,0,0,1-1.4,3.67c-.49,1-1.33,1.44-2.81.72,2.54-.95,3.09-2.31,2.28-4.54a62.32,62.32,0,0,1-2.21-7.19C337,214.89,337.1,217.64,338.53,220.18Z" transform="translate(-0.1 -0.02)"/><path d="M245.27,221.49c-.06-.47-.15-.93-.17-1.4a34.36,34.36,0,0,0-.14-4.66c-.12-.77-1-2.05-1.44-2a3.36,3.36,0,0,0-2.43,1.5,12,12,0,0,0-.4,3.87,9.44,9.44,0,0,1-.31,2.62c-.87-2.77-.42-5.6-.52-8.08a17.54,17.54,0,0,0,2.26-.51c1.95-.74,3.53.09,3.68,2.21s0,4.28,0,6.42Z" transform="translate(-0.1 -0.02)"/><path d="M302.21,221.46c0-.83-.09-1.67-.12-2.51,0-1.14-.07-2.28,0-3.42s-.41-2.08-1.6-2.21a2.08,2.08,0,0,0-2.48,1.81c-.19,1.35-.21,2.73-.28,4.1,0,.73,0,1.46,0,2.2h-.6v-8.26a6.07,6.07,0,0,0,1.76-.22c2.09-.91,3.79-.1,4,2.16.15,2.1,0,4.21,0,6.31Z" transform="translate(-0.1 -0.02)"/><path d="M256.45,80.84h-3.68V76.63h3.68Z" transform="translate(-0.1 -0.02)"/><path d="M258.88,76.58h3.68V80.8h-3.68Z" transform="translate(-0.1 -0.02)"/><path d="M268.68,130.51h-3.74V126.3h3.74Z" transform="translate(-0.1 -0.02)"/><path d="M258.83,130.45v-4.16h3.74v4.16Z" transform="translate(-0.1 -0.02)"/><path d="M256.52,126.35v4.14h-3.8v-4.14Z" transform="translate(-0.1 -0.02)"/><path d="M268.7,80.84H265V76.63h3.71Z" transform="translate(-0.1 -0.02)"/><path d="M264.89,221.44V210.36l-3.62-.39.05-.52H269l.06.51-3.57.4v11.08Z" transform="translate(-0.1 -0.02)"/><path d="M285.59,215.73a13.26,13.26,0,0,0-1.32-1.88,2.57,2.57,0,0,0-3.57.25c-1.08,1.23-1,5,.12,6.08a2.39,2.39,0,0,0,3.41.13,7.68,7.68,0,0,0,1.19-1.68c.59,1.13-.35,2.54-1.89,2.86-2.31.48-3.9-.47-4.26-2.85a10.94,10.94,0,0,1,.19-4c.35-1.51,2.12-2.27,3.78-1.94S285.66,213.76,285.59,215.73Z" transform="translate(-0.1 -0.02)"/><path d="M284.92,112.22h-3.71v-4.06h3.71Z" transform="translate(-0.1 -0.02)"/><path d="M240.23,112.22h-3.72v-4.07h3.72Z" transform="translate(-0.1 -0.02)"/><path d="M281.14,105.71v-4H285v4Z" transform="translate(-0.1 -0.02)"/><path d="M240.22,105.75h-3.7v-4h3.7Z" transform="translate(-0.1 -0.02)"/><path d="M285,94.93v3.95h-3.81V94.93Z" transform="translate(-0.1 -0.02)"/><path d="M240.27,98.93h-3.8v-4h3.8Z" transform="translate(-0.1 -0.02)"/><path d="M359.51,221.09c-2,.53-2.53.17-2.6-1.54s0-3.36-.06-5a4.4,4.4,0,0,0-.49-1.36l.91-3.19c1.15.79-.51,3,1.85,2.92-2.53,1.6-.95,4-1.31,6C357.61,219.92,357.76,221.09,359.51,221.09Z" transform="translate(-0.1 -0.02)"/><path d="M148,221.27c-1.87.36-2.44,0-2.52-1.7s0-3.36-.05-5a4.63,4.63,0,0,0-.49-1.39l.91-3.22c1.07.92-.46,3.18,1.33,3.06-.26.65-.88,1.41-.78,2.07C146.76,217.1,145.17,219.67,148,221.27Z" transform="translate(-0.1 -0.02)"/><path d="M388.35,221.26V209.35l.64,0c.28,3.69,0,7.42.18,11.41h5.49l0,.54Z" transform="translate(-0.1 -0.02)"/><path d="M168.65,221.42c-1-2.68.7-5.84-1-8.44a4.64,4.64,0,0,0,.74-1.48c.33-2.24.63-2.5,3.24-2-1.36.55-2.93.78-2.34,2.53.16.47.76.78.82.84a6.75,6.75,0,0,0-.83,2c-.1,2.18,0,4.36,0,6.54Z" transform="translate(-0.1 -0.02)"/><path d="M222,221.43v-8.19l3.77-.56c-.22.57-.25.76-.3.77-2.48.36-2.76.67-2.81,3.3,0,1.56,0,3.12,0,4.68Z" transform="translate(-0.1 -0.02)"/><path d="M181.31,213.39a10,10,0,0,1,1.66-.54,14.7,14.7,0,0,1,1.88,0l.05.46c-.18.09-.38.3-.54.27-1.72-.29-2.28.76-2.38,2.15s0,3-.09,4.49a1.54,1.54,0,0,1-.58,1.23Z" transform="translate(-0.1 -0.02)"/><path d="M162.09,213.28c-2.82.77-2.9.89-2.91,4.16,0,1.33,0,2.66,0,4h-.56v-8.25l3.4-.43Z" transform="translate(-0.1 -0.02)"/><ellipse cx="314.54" cy="215.37" rx="0.26" ry="8.53"/><path d="M236.45,221.42v-8.51h.4v8.51Z" transform="translate(-0.1 -0.02)"/><path class="cls-1" d="M342.76,175.72H333.9c1.44-4.85,2.85-9.57,4.41-14.81C339.87,166.1,341.29,170.84,342.76,175.72Z" transform="translate(-0.1 -0.02)"/><path class="cls-1" d="M254.57,217.47c-.14.55-.12,1.55-.6,2.1a3.37,3.37,0,0,1-2.35,1.18,2.92,2.92,0,0,1-2.14-1.46,7.61,7.61,0,0,1-.31-3.47,2.45,2.45,0,0,1,2.56-2.46c1.56,0,2.34,1,2.62,2.42C254.45,216.24,254.48,216.72,254.57,217.47Z" transform="translate(-0.1 -0.02)"/><path class="cls-1" d="M232.91,217.4c-.11.55,0,1.5-.49,2a3.81,3.81,0,0,1-2.43,1.34,2.83,2.83,0,0,1-2.15-1.43,7.78,7.78,0,0,1-.32-3.48,2.46,2.46,0,0,1,2.55-2.47c1.65,0,2.4,1.07,2.67,2.57C232.81,216.34,232.84,216.76,232.91,217.4Z" transform="translate(-0.1 -0.02)"/><path class="cls-1" d="M332.84,217.57c-.67,1-1.14,2.32-2.06,3a2.3,2.3,0,0,1-3.45-1.38,12.11,12.11,0,0,1-.15-3.66,2.25,2.25,0,0,1,2.4-2.18,2.41,2.41,0,0,1,2.61,2.17c.11.58.19,1.17.29,1.76Z" transform="translate(-0.1 -0.02)"/><path class="cls-1" d="M398.38,216.63c.71-2,1.37-3.9,2.15-6.15l2.25,6.15Z" transform="translate(-0.1 -0.02)"/><path class="cls-1" d="M353.13,216.89c0,2.75-.92,4.06-2.9,3.85-.6-.06-1.57-.77-1.58-1.21a2.4,2.4,0,0,1,1.1-1.85A15.8,15.8,0,0,1,353.13,216.89Z" transform="translate(-0.1 -0.02)"/><path class="cls-1" d="M218.64,216.35h-4.92c.08-1.7.66-3,2.45-3S218.57,214.56,218.64,216.35Z" transform="translate(-0.1 -0.02)"/><path class="cls-1" d="M276.3,216.37h-4.82c.23-2.15,1-3.11,2.52-3.08S276.14,214.21,276.3,216.37Z" transform="translate(-0.1 -0.02)"/><path class="cls-1" d="M133.51,216.35h-4.92c.08-1.7.66-3,2.45-3S133.44,214.56,133.51,216.35Z" transform="translate(-0.1 -0.02)"/><path class="cls-1" d="M155.11,216.39h-4.79c.14-2.12.92-3.1,2.44-3.1S154.91,214.17,155.11,216.39Z" transform="translate(-0.1 -0.02)"/><path class="cls-1" d="M178,217a6,6,0,0,1-.5,2.25,3.31,3.31,0,0,1-2.14,1.43,2.68,2.68,0,0,1-2.1-1.42,12.19,12.19,0,0,1-.16-4,2.3,2.3,0,0,1,4.54,0C177.76,215.87,177.91,216.45,178,217Z" transform="translate(-0.1 -0.02)"/><path class="cls-1" d="M311.14,217c-.12.69-.21,1.33-.36,2-.28,1.2-1.1,2.07-2.27,1.76a3.51,3.51,0,0,1-2.2-1.84,9.7,9.7,0,0,1-.06-3.65,2.3,2.3,0,0,1,4.54,0C310.88,215.89,311,216.47,311.14,217Z" transform="translate(-0.1 -0.02)"/><path class="cls-1" d="M323.39,217c-.11.64,0,1.49-.4,2-.54.72-1.44,1.69-2.13,1.66a3.17,3.17,0,0,1-2.27-1.7,7.78,7.78,0,0,1-.18-3.48,2.24,2.24,0,0,1,2.38-2.2c1.42,0,2.12.89,2.35,2.22C323.22,216,323.3,216.49,323.39,217Z" transform="translate(-0.1 -0.02)"/></g></g></svg>