<svg xmlns="http://www.w3.org/2000/svg" viewBox="0 0 1440 808"><defs><style>.cls-1{fill:#fff;}</style></defs><title>Asset 1</title><g id="Layer_2" data-name="Layer 2"><g id="Layer_1-2" data-name="Layer 1"><path class="cls-1" d="M1441,809H1V1H1441ZM725.19,245.71c-4.85,11.48-9.1,21.54-13.65,32.34l-12.26-24.14c-2.23,13.57-11.18,12.34-19.68,12a5.66,5.66,0,0,0-1.55.48v38.3h88.79V259.92a24.71,24.71,0,0,1-4.35,0c-6.15-1.21-9.19,1.47-11.2,7.27-2.63,7.56-6.29,14.75-9.95,23.12C735.83,275.08,730.75,261.07,725.19,245.71ZM767,215.3H678V260a42.8,42.8,0,0,1,6.13.05c4.62.71,7.32-1.14,9.23-5.36,1.8-4,4.33-7.64,6.85-12l10.86,21.41c5-11.77,9.51-22.45,14.51-34.26l16.24,44.74c2.74-6.24,5.17-11.14,7-16.25,1.3-3.59,3.33-4.82,7-4.48s7.22.07,11.07.07ZM559.27,434.66H594V423H559.28V398.7h41.07V387h-54.1v84.73h54V459.76h-41ZM700,386.89a9.73,9.73,0,0,0-.52,2.11c0,18-.11,36,.06,54,.06,6.76,1.67,13.17,6.24,18.54a32,32,0,0,0,35.42,9.21c11.78-4.16,18.75-14.41,18.87-28.39.15-16.83.05-33.66,0-50.49,0-1.62-.14-3.23-.21-4.94H747.12v5.66c0,16.83.16,33.67-.16,50.5-.22,11.43-9.62,18.47-20.84,16.24-9.11-1.81-13.69-8.22-13.77-19.72-.1-15.83,0-31.66,0-47.5,0-1.75-.16-3.5-.24-5.22ZM901.42,471.8h13.45c1.79-5.22,3.42-10.46,5.44-15.54.54-1.35,2.24-3.13,3.44-3.16,10-.26,19.94-.15,30-.15,1.07,2.94,2.06,5.58,3,8.25,3.89,11.19,3.89,11.19,15.58,10.75a6.59,6.59,0,0,0,1.46-.48c-.39-1.23-.7-2.33-1.09-3.41-9.36-25.77-18.84-51.5-28-77.35-1.43-4.06-3.85-4.1-7.17-4.17s-5.63.41-7,4.35c-9,25.54-18.37,51-27.61,76.43C902.37,468.69,902,470.11,901.42,471.8ZM834,411.11c-1.47-14.42-13.82-24.92-28.87-25.15-15.3-.23-28.79,10.15-30,24.34-1,11.4-.59,22.94-.53,34.41.09,17.86,17.89,31.12,37,27.27,12-2.42,21.85-12.81,22.19-23.77-6.37,0-12.68-1.89-17.15,5.85-3.31,5.72-10.11,6.72-16.55,4.93-6.66-1.86-11.47-6.31-11.87-13.27a297.87,297.87,0,0,1,0-32.87c.36-6.91,6.13-12.21,12.79-13.61,6.91-1.46,14.24.83,17.28,7,2.29,4.68,5.26,5.22,9.47,4.88C829.63,411,831.63,411.11,834,411.11ZM536,448.05a55.64,55.64,0,0,1-5.81,0c-4.63-.54-7.78.57-10.59,5-3.79,6-10.23,7.81-17.17,6s-11.8-6.28-12.28-13.45a267.51,267.51,0,0,1-.25-30.89A16,16,0,0,1,503,399.21c7.86-1.6,14.24,1.61,18.69,9.19.65,1.11,2,2.47,3.07,2.57,3.71.32,7.46.12,11.26.12-1.79-14.81-14.2-25.11-29.51-25.14-15,0-28.31,10.39-29.43,24.44-.94,11.9-.64,23.94-.28,35.9.32,10.63,6.4,17.95,15.46,22.86C510.32,478.92,533.28,468.11,536,448.05Zm68.32-49.84h23.29V471.8h13V397.89h23V387H604.3Zm294,73.54V459.63H856.71V387H844.25v84.79ZM694.14,192.22c-8.18,0-16.2-.66-24.06.19s-13.52,5.84-14.37,13.82c-.88,8.31-.2,16.79-.2,25.27h10.83c0-6.81,0-13.28,0-19.75,0-6.73,1.46-8.13,8.28-8.15,6.44,0,12.87,0,19.51,0Zm56.76,11.37h14.65c13.11,0,13.11,0,13.11,12.84v15.12H790c0-6.85,0-13.47,0-20.09a24,24,0,0,0-.17-4c-1.37-8.13-6.41-14.08-14.6-15-8-.87-16.18-.19-24.32-.19Zm-95.8,84.82c0,8.15-.58,16,.16,23.73s5.15,14,13.21,14.9c8.44,1,17.08.22,25.58.22V316.41c-6.79,0-13.26,0-19.72,0s-7.94-1.53-8-7.95c0-6.6,0-13.21,0-20ZM750.62,328c8.11,0,15.44.28,22.73-.07,7.83-.37,14.46-5.36,15.62-13.08,1.3-8.59,1-17.43,1.37-26.35H778.66c0,6.76,0,13.22,0,19.68,0,6.84-1.4,8.22-8.18,8.25-6.45,0-12.9,0-19.47,0-.17,1.79-.34,2.92-.37,4.06C750.58,322.78,750.62,325.09,750.62,328ZM923.9,535c-2.69-.4-4.62-.32-6.24-1-5.88-2.44-11.61,0-13.68,6-1.72,5-.5,11.7,3.06,14.32,4.25,3.12,8.74,2.4,13.11-.06.17-.1.52.12,1.89.5-1.32,2.37-2,5.21-3.82,6.51-4.83,3.49-9.4,1.51-14-3.65,1.8,6.3,4.58,7.84,10.7,7.34,5.33-.43,8.62-3.12,8.87-8.34C924.16,549.18,923.9,541.7,923.9,535ZM688.11,558.53c1.55,5.81,5.32,6.5,9.45,6.48,4.47,0,9.14-1.17,9.57-6.09.72-8.28.19-16.67.19-25-2,4.39-3.94.91-5.79.11-4.57-1.94-9.36-.79-12.07,3-3.21,4.46-2.93,12.24.58,16.41,2.9,3.44,8,3.78,13.75,1,.33-.17.81,0,1.23,0C704.74,563.48,699.2,565,688.11,558.53Zm-40.24-23.35c-2.69-.44-4.46-.39-5.92-1-6.11-2.69-12-.28-14,6-1.66,5.15-1.07,10.19,2.91,13.87,4.26,3.92,9.23,2.4,15.4-.79-1.47,3.43-1.82,6.19-3.39,7.54-5,4.27-9.78,1.85-14.93-3.14,2.31,6.36,5.15,7.86,11.18,7.3,5.09-.48,8.39-3.07,8.64-8C648.15,549.36,647.87,541.74,647.87,535.18Zm-80,20.66h2.66c0-4.39-.16-8.79,0-13.17.18-3.71,1.31-7.36,5.89-7.15s4.57,4,4.55,7.46c0,4.3,0,8.6,0,13.66,1.53-.92,2.26-1.15,2.26-1.38,0-6,.27-12-.39-17.85-.42-3.78-4.87-5.31-8.79-3.66a43.69,43.69,0,0,0-4.27,2.36c-2.79-3-5.82-3.8-9.55-2.11-1.43.65-3.22.51-5.24.78-1.61,5.73-.91,19.15,2,21.56,0-2.79-.11-5,0-7.27.18-3.13-.12-6.54,1.08-9.27.81-1.86,3.73-3.45,5.91-3.77,1-.15,2.94,3,3.57,4.86s.19,4.28.19,6.45C567.83,550.17,567.83,553,567.83,555.84Zm-39.66-.37H548l.07-1.75H531.22v-13H546.1L546,538.9H531.2V528c5.56-.94,11.25.6,16.46-.94l-.21-1.71H528.17Zm594.88.95,1.39-1.28c-4-9.3-7.87-18.6-11.9-27.86-.39-.9-1.46-2-2.28-2.07a3.33,3.33,0,0,0-2.38,1.83c-4,9.43-7.78,18.91-11.63,28.38l1.35,1a37.33,37.33,0,0,0,2.84-3.72c1.23-2.08,1.94-5.83,3.43-6.14a32.26,32.26,0,0,1,12.8,0c1.51.31,2.24,4,3.49,6.12A43.59,43.59,0,0,0,1123.05,556.42Zm-86.42-31.16-2.69-.26a35.47,35.47,0,0,0-.56,4.32c-.08,4.82.06,9.65-.07,14.48-.18,7.25-2.77,10.2-8.69,10.22s-8.67-3-8.83-10.09c-.12-5.15.05-10.32-.1-15.47,0-1.2-.87-2.38-1.34-3.57a103.47,103.47,0,0,0-1,23.65c.44,5,4.51,7.35,9.59,7.7,6.35.45,11.48-1.35,12.18-6.12C1036.35,541.94,1036.21,533.56,1036.63,525.26Zm-688.92,9.16c-1.2-7.47-6-10.52-13.41-9.6s-12.37,7.87-11.9,16.51c.5,9.08,5.25,14.62,12.88,15,7.41.4,12.15-3.23,13.46-12-6.32,8.63-12.69,14.78-20.94,5.06-3.92-4.62-3.08-14.93,1.36-19.07C336.64,523.35,342.46,527.59,347.71,534.42Zm720.63,11.22c-5.35,6.86-11,12.6-19.46,5.22-3.77-3.28-4.76-11.67-2-16.88,6.61-12.24,14-7,21.88,1.52-2.61-8.77-7.32-11.65-14.67-10.66-7,.94-11.79,7.32-11.78,15.66,0,8.6,4.56,14.78,11.59,15.72C1061.75,557.26,1066.65,554,1068.34,545.64Zm-88.51-4c-4.8,1-8.57,1.56-12.19,2.62-3.21.94-5.53,3.58-4.34,6.76.79,2.13,3.58,4.61,5.74,4.88,3.16.4,6.55-1,10.24-1.79.16.5.6,1.87,1.05,3.23l1.32-1.61c0-4.73.12-9.46,0-14.19-.1-3.16-.24-6.53-4.08-7.76-4.19-1.34-8.29-1.21-11.73,1.81-1,.88-1.32,2.52-1.95,3.81.36.46.73.92,1.09,1.39,2.94-4.59,6.63-7.4,11.57-4.71C978,536.9,978.51,539.36,979.83,541.67ZM801,525.26l-1.76-.33c-.33,1.53-1,3.07-.93,4.58.31,8.78-.95,17.7,1.59,26.33a8,8,0,0,0,1.1-4.39c.09-3.32-.21-6.7.32-9.94.63-3.85,3.12-6.34,7.31-5.9,3.89.41,4.43,3.46,4.45,6.65,0,2.66,0,5.32,0,8,.06,1.93.31,3.85.57,7,3.08-5,3.21-19.23.24-21.44-2.17-1.62-5.63-1.74-8.55-2-1.23-.1-2.57,1.19-4.38,2.11V525.26Zm-32.25,19.82c-.42-8.24-3.61-12-9.62-12s-9.93,4.66-10.07,11.38c-.14,7.09,3.72,11.65,10,11.81,5.2.14,8.2-2.34,8.51-7-8.75,5.25-9.9,5.84-12,3.7-1.86-1.87-2.83-4.63-4.72-7.91Zm-161,2.46c-3.51,5.25-7.1,8.94-12.16,5.43-2-1.42-2.88-4.58-4.87-8h18c-.36-8.1-3.53-11.91-9.55-11.87s-9.95,4.62-10.11,11.33c-.17,6.88,3.45,11.41,9.43,11.82C603.94,556.64,607.12,554.21,607.72,547.54Zm-175.17-2.47c0-8.05-3.48-12.22-9.72-11.94-6,.27-10,5.25-9.77,12.15.25,7.28,4.57,11.5,11.24,11,4.75-.37,7.36-3,6.85-8.38-2.76,5-6.29,8.18-11,5.42-2.26-1.31-3.34-4.64-5.74-8.23ZM372.78,545c-.62-8.54-4.15-12.38-10.33-11.84-6,.52-9.79,5.58-9.36,12.49s4.37,10.83,10.6,10.66c4.94-.14,7.81-2.78,7.67-8-3.24,4.07-6.54,8.18-11.56,4.79-2.13-1.43-3-4.68-5.08-8.1Zm5.75,10.91,2.45-.12c0-2.41-.09-4.82,0-7.22.12-2.81-.38-6.07.89-8.27a10.14,10.14,0,0,1,6.67-4.52c3.43-.41,4.44,2.8,4.47,5.91,0,3.5,0,7,.07,10.5a33.5,33.5,0,0,0,.51,3.83l1.9-.06c0-5.58.45-11.2-.12-16.72-.56-5.32-5.45-7.43-10.55-5.43-1.75.68-3.73.8-6.47,1.35A198.52,198.52,0,0,0,378.53,555.92Zm286.3-21.09c-1.61,5.62-.92,19.09,1.69,21.26.17-1.29.41-2.34.44-3.4.11-3.66-.18-7.37.31-11,.52-3.87,3-6.44,7.16-6.13,3.86.29,4.61,3.25,4.63,6.51,0,1.83,0,3.67,0,5.5,0,2.78,0,5.56,0,8.34l1.58.14c.39-.58,1.11-1.17,1.11-1.75a124.58,124.58,0,0,0-.22-14.47c-.64-5.9-5.56-8.2-11.07-5.89C668.91,534.62,667,534.52,664.83,534.83Zm157.86.13c-1.55,8.1-.7,19.39,2.33,21.12,0-4.43-.14-8.56,0-12.67.22-5.07,3.16-8.28,7.16-7.87,4.86.49,4.84,4.24,4.86,7.84,0,4.16,0,8.32,0,12.48l1.47.23c.43-.69,1.24-1.37,1.24-2.06a120.45,120.45,0,0,0-.19-14c-.65-6.15-5.67-8.52-11.38-6C826.81,534.71,825.07,534.61,822.69,535ZM495.9,544.63c-.11-7.06-4.17-11.57-10.39-11.55-5.65,0-9.56,4.89-9.51,11.8s4,11.53,9.83,11.46C492.18,556.26,496,551.81,495.9,544.63Zm349.1.22c0,6.89,4,11.55,9.8,11.49,6.36-.07,10.19-4.51,10.1-11.68s-4.15-11.59-10.37-11.58C848.88,533.1,845,537.93,845,544.85Zm53.9-.24c-.12-7.06-4.19-11.57-10.41-11.52-5.65,0-9.55,4.89-9.49,11.8s4,11.53,9.84,11.45C895.19,556.25,899,551.79,898.9,544.61Zm31.18,18.53c2.71,2.94,5.32,2.34,7.27-2.25,3.49-8.25,6.66-16.63,9.91-25a6.84,6.84,0,0,0,.18-2l-1.51-.61-8,19.38c-1.76-4.62-3-7.86-4.23-11.1-2.65-6.93-2.65-6.93-5.67-7.4,2.3,5.87,4.54,11.53,6.76,17.2C937.35,557.9,936.22,560.7,930.08,563.14ZM736.2,528.81c3.43-2.15,7.45.66,10.35-3.2H724.09c-.05.54-.09,1.07-.14,1.61l9.42,1.08v14.55c0,11.48,0,11.48,2.83,13.43ZM1079,553.92c-.12-2.76-.25-4.4-.26-6,0-6.33.06-12.67-.06-19a15.47,15.47,0,0,0-1.17-3.95l-1.41.39v30H1094v-1.43ZM791.65,540.15c-1.4-5.55-5.69-8-10.83-6.9s-8.21,6-7.79,12.82c.38,6.22,3.87,10,9.38,10.27s8.66-2.17,9.87-8.67c-4.66,4.68-8.83,10.51-14.71,3.53-2.73-3.23-2.4-10.89.46-13.56C783.36,532.69,787.48,536.46,791.65,540.15Zm-74.47-348v11.1h10.54v-11.1Zm.11,124.55v10.9h10.52v-10.9Zm-62-79.2v11H665.9v-11Zm123.8.07v10.85h10.66V237.6Zm10.64,44.87v-11H779.1v11ZM666,254.54H655.35v10.85H666Zm-10.79,16.88v11h10.7v-11Zm123.83-16.88V265.4h10.68V254.54Zm-68-62.25H700.42v10.86H711Zm33.69,124.54H734.07v10.89h10.65Zm-33.89,10.9V316.81H700.3v10.92Zm33.89-135.48H734.14v11h10.58ZM473.23,535c-.05-.29-.11-.59-.16-.88l-3.57-1c-2.42-5.82,3-5.52,5.71-7.54-6.28-1.55-7.78-.56-9,4.76-.37,1.61-1.64,3-2.43,4.38,6,5.73-.31,14.72,3.59,21.28l1.32-.15V536.3ZM409.39,555.5c-1.3-2-3.61-3.94-3.35-5.45.88-5.21-3.8-11.86,3.57-15.49-1.23-.8-3-1.35-3.6-2.51-.7-1.39-.38-3.3-.51-5l-1.07-.1-3.21,7.42c.59,1.82,1.58,3.66,1.73,5.56.29,3.65,0,7.33.13,11C403.31,555.78,405.23,556.87,409.39,555.5Zm586.26.07c-1.35-1.89-3.8-3.78-3.59-5.32.7-5.36-3.59-12,4.7-16.54-7.27,1.21-3.8-4.38-6-7.27-1.44,3.18-2.66,5.85-3.7,8.16.67,1.55,1.78,3,1.91,4.63.29,3.64,0,7.32.12,11C989.19,555.64,990.71,556.71,995.65,555.57ZM614.83,535.35c-1.39,5.3-.72,18.51,2.21,21.11v-5.79c0-11.53,0-11.53,8.51-16.37a12.75,12.75,0,0,0-5.53-.54A34.8,34.8,0,0,0,614.83,535.35ZM872.4,556.27V524.09C869.55,528.85,869.75,553.14,872.4,556.27Zm-370.32-.39,2,0c0-2.69,0-5.39,0-8.09,0-9.57.08-9.64,8.27-12.28.11,0,.14-.29.82-1.9l-11.05,1.07Zm-62.94,0,1.91-.12c0-3.38-.05-6.77,0-10.16.13-7.93.83-8.75,8-9.9.17,0,.27-.54,1.09-2.29l-11.05,1.26ZM656.63,534c-3.24,4-2.85,19.7,0,22Z" transform="translate(-1 -1)"/><path d="M725.19,245.71c5.56,15.36,10.64,29.37,16.15,44.56,3.66-8.37,7.32-15.56,9.95-23.12,2-5.8,5.05-8.48,11.2-7.27a24.71,24.71,0,0,0,4.35,0v44.82H678.05v-38.3a5.66,5.66,0,0,1,1.55-.48c8.5.29,17.45,1.52,19.68-12l12.26,24.14C716.09,267.25,720.34,257.19,725.19,245.71Z" transform="translate(-1 -1)"/><path d="M767,215.3V254c-3.85,0-7.49.26-11.07-.07s-5.75.89-7,4.48c-1.86,5.11-4.29,10-7,16.25L725.61,229.9c-5,11.81-9.53,22.49-14.51,34.26l-10.86-21.41c-2.52,4.32-5,8-6.85,12-1.91,4.22-4.61,6.07-9.23,5.36A42.8,42.8,0,0,0,678,260V215.3Z" transform="translate(-1 -1)"/><path d="M559.27,434.66v25.1h41v11.93h-54V387h54.1V398.7H559.28V423H594v11.64Z" transform="translate(-1 -1)"/><path d="M700,386.89h12.1c.08,1.72.24,3.47.24,5.22,0,15.84-.06,31.67,0,47.5.08,11.5,4.66,17.91,13.77,19.72,11.22,2.23,20.62-4.81,20.84-16.24.32-16.83.13-33.67.16-50.5v-5.66h12.75c.07,1.71.2,3.32.21,4.94,0,16.83.11,33.66,0,50.49-.12,14-7.09,24.23-18.87,28.39a32,32,0,0,1-35.42-9.21c-4.57-5.37-6.18-11.78-6.24-18.54-.17-18-.08-36-.06-54A9.73,9.73,0,0,1,700,386.89Z" transform="translate(-1 -1)"/><path d="M901.42,471.8c.55-1.69,1-3.11,1.45-4.48,9.24-25.47,18.6-50.89,27.61-76.43,1.39-3.94,3.55-4.42,7-4.35s5.74.11,7.17,4.17c9.14,25.85,18.62,51.58,28,77.35.39,1.08.7,2.18,1.09,3.41a6.59,6.59,0,0,1-1.46.48c-11.69.44-11.69.44-15.58-10.75-.93-2.67-1.92-5.31-3-8.25-10,0-20-.11-30,.15-1.2,0-2.9,1.81-3.44,3.16-2,5.08-3.65,10.32-5.44,15.54Zm36.18-68c-4.35,13.2-8.25,25.06-12.28,37.3H950C945.89,428.79,942,416.9,937.6,403.78Z" transform="translate(-1 -1)"/><path d="M834,411.11c-2.35,0-4.35-.13-6.31,0-4.21.34-7.18-.2-9.47-4.88-3-6.19-10.37-8.48-17.28-7-6.66,1.4-12.43,6.7-12.79,13.61a297.87,297.87,0,0,0,0,32.87c.4,7,5.21,11.41,11.87,13.27,6.44,1.79,13.24.79,16.55-4.93,4.47-7.74,10.78-5.88,17.15-5.85-.34,11-10.22,21.35-22.19,23.77-19.08,3.85-36.88-9.41-37-27.27-.06-11.47-.45-23,.53-34.41,1.23-14.19,14.72-24.57,30-24.34C820.16,386.19,832.51,396.69,834,411.11Z" transform="translate(-1 -1)"/><path d="M536,448.05c-2.7,20.06-25.66,30.87-43.71,21.1-9.06-4.91-15.14-12.23-15.46-22.86-.36-12-.66-24,.28-35.9,1.12-14.05,14.4-24.47,29.43-24.44,15.31,0,27.72,10.33,29.51,25.14-3.8,0-7.55.2-11.26-.12-1.1-.1-2.42-1.46-3.07-2.57-4.45-7.58-10.83-10.79-18.69-9.19a16,16,0,0,0-13.13,15.53,267.51,267.51,0,0,0,.25,30.89c.48,7.17,5.37,11.69,12.28,13.45s13.38,0,17.17-6c2.81-4.46,6-5.57,10.59-5A55.64,55.64,0,0,0,536,448.05Z" transform="translate(-1 -1)"/><path d="M604.3,398.21V387h59.26v10.92h-23V471.8h-13V398.21Z" transform="translate(-1 -1)"/><path d="M898.28,471.75h-54V387h12.46v72.67h41.57Z" transform="translate(-1 -1)"/><path d="M694.14,192.22v11.37c-6.64,0-13.07,0-19.51,0-6.82,0-8.25,1.42-8.28,8.15,0,6.47,0,12.94,0,19.75H655.51c0-8.48-.68-17,.2-25.27.85-8,6.58-13,14.37-13.82S686,192.22,694.14,192.22Z" transform="translate(-1 -1)"/><path d="M750.9,203.59V192.31c8.14,0,16.32-.68,24.32.19,8.19.9,13.23,6.85,14.6,15a24,24,0,0,1,.17,4c0,6.62,0,13.24,0,20.09H778.66V216.43c0-12.84,0-12.84-13.11-12.84Z" transform="translate(-1 -1)"/><path d="M655.1,288.41h11.24c0,6.83,0,13.44,0,20,0,6.42,1.54,7.92,8,7.95s12.93,0,19.72,0v10.85c-8.5,0-17.14.77-25.58-.22-8.06-.93-12.46-7.18-13.21-14.9S655.1,296.56,655.1,288.41Z" transform="translate(-1 -1)"/><path d="M750.62,328c0-2.88,0-5.19,0-7.5,0-1.14.2-2.27.37-4.06,6.57,0,13,0,19.47,0,6.78,0,8.15-1.41,8.18-8.25,0-6.46,0-12.92,0-19.68h11.68c-.39,8.92-.07,17.76-1.37,26.35-1.16,7.72-7.79,12.71-15.62,13.08C766.06,328.25,758.73,328,750.62,328Z" transform="translate(-1 -1)"/><path d="M923.9,535c0,6.69.26,14.17-.09,21.62-.25,5.22-3.54,7.91-8.87,8.34-6.12.5-8.9-1-10.7-7.34,4.58,5.16,9.15,7.14,14,3.65,1.81-1.3,2.5-4.14,3.82-6.51-1.37-.38-1.72-.6-1.89-.5-4.37,2.46-8.86,3.18-13.11.06-3.56-2.62-4.78-9.3-3.06-14.32,2.07-6,7.8-8.43,13.68-6C919.28,534.69,921.21,534.61,923.9,535Zm-2.59,10c0-5.86-3.13-9.71-7.75-9.67s-7.56,3.8-7.58,9.32c0,5.81,3,9.54,7.8,9.53S921.35,550.64,921.31,545Z" transform="translate(-1 -1)"/><path d="M688.11,558.53c11.09,6.51,16.63,5,16.91-4.17-.42,0-.9-.15-1.23,0-5.8,2.8-10.85,2.46-13.75-1-3.51-4.17-3.79-11.95-.58-16.41,2.71-3.76,7.5-4.91,12.07-3,1.85.8,3.82,4.28,5.79-.11,0,8.34.53,16.73-.19,25-.43,4.92-5.1,6.07-9.57,6.09C693.43,565,689.66,564.34,688.11,558.53Zm17.2-13.5c0-5.86-3.13-9.71-7.75-9.67s-7.55,3.8-7.58,9.32c0,5.81,3,9.54,7.8,9.53S705.35,550.65,705.31,545Z" transform="translate(-1 -1)"/><path d="M647.87,535.18c0,6.56.28,14.18-.11,21.77-.25,4.95-3.55,7.54-8.64,8-6,.56-8.87-.94-11.18-7.3,5.15,5,9.95,7.41,14.93,3.14,1.57-1.35,1.92-4.11,3.39-7.54-6.17,3.19-11.14,4.71-15.4.79-4-3.68-4.57-8.72-2.91-13.87,2-6.32,7.89-8.73,14-6C643.41,534.79,645.18,534.74,647.87,535.18Zm-2.55,10.17c.07-5.93-2.81-9.78-7.44-10s-7.76,3.45-7.89,9c-.15,5.83,2.78,9.69,7.47,9.85S645.25,550.91,645.32,545.35Z" transform="translate(-1 -1)"/><path d="M567.83,555.84c0-2.83,0-5.67,0-8.5,0-2.17.44-4.49-.19-6.45s-2.6-5-3.57-4.86c-2.18.32-5.1,1.91-5.91,3.77-1.2,2.73-.9,6.14-1.08,9.27-.14,2.23,0,4.48,0,7.27-2.95-2.41-3.65-15.83-2-21.56,2-.27,3.81-.13,5.24-.78,3.73-1.69,6.76-.93,9.55,2.11a43.69,43.69,0,0,1,4.27-2.36c3.92-1.65,8.37-.12,8.79,3.66.66,5.89.36,11.89.39,17.85,0,.23-.73.46-2.26,1.38,0-5.06,0-9.36,0-13.66,0-3.46,0-7.25-4.55-7.46s-5.71,3.44-5.89,7.15c-.21,4.38,0,8.78,0,13.17Z" transform="translate(-1 -1)"/><path d="M528.17,555.47V525.38h19.28l.21,1.71c-5.21,1.54-10.9,0-16.46.94V538.9H546l.06,1.86H531.22v13H548.1l-.07,1.75Z" transform="translate(-1 -1)"/><path d="M1123.05,556.42a43.59,43.59,0,0,1-2.89-3.79c-1.25-2.08-2-5.81-3.49-6.12a32.26,32.26,0,0,0-12.8,0c-1.49.31-2.2,4.06-3.43,6.14a37.33,37.33,0,0,1-2.84,3.72l-1.35-1c3.85-9.47,7.68-18.95,11.63-28.38a3.33,3.33,0,0,1,2.38-1.83c.82.06,1.89,1.17,2.28,2.07,4,9.26,8,18.56,11.9,27.86Zm-13-28.31c-2.34,6-4.1,10.57-6,15.45h12.24C1114.32,538.58,1112.49,534,1110.09,528.11Z" transform="translate(-1 -1)"/><path d="M1036.63,525.26c-.42,8.3-.28,16.68-1.48,24.86-.7,4.77-5.83,6.57-12.18,6.12-5.08-.35-9.15-2.67-9.59-7.7a103.47,103.47,0,0,1,1-23.65c.47,1.19,1.3,2.37,1.34,3.57.15,5.15,0,10.32.1,15.47.16,7.1,2.86,10.11,8.83,10.09s8.51-3,8.69-10.22c.13-4.83,0-9.66.07-14.48a35.47,35.47,0,0,1,.56-4.32Z" transform="translate(-1 -1)"/><path d="M347.71,534.42c-5.25-6.83-11.07-11.07-18.55-4.09-4.44,4.14-5.28,14.45-1.36,19.07,8.25,9.72,14.62,3.57,20.94-5.06-1.31,8.8-6.05,12.43-13.46,12-7.63-.42-12.38-6-12.88-15-.47-8.64,4.53-15.59,11.9-16.51S346.51,527,347.71,534.42Z" transform="translate(-1 -1)"/><path d="M1068.34,545.64c-1.69,8.38-6.59,11.62-14.39,10.58-7-.94-11.59-7.12-11.59-15.72,0-8.34,4.79-14.72,11.78-15.66,7.35-1,12.06,1.89,14.67,10.66-7.89-8.55-15.27-13.76-21.88-1.52-2.81,5.21-1.82,13.6,2,16.88C1057.36,558.24,1063,552.5,1068.34,545.64Z" transform="translate(-1 -1)"/><path d="M979.83,541.67c-1.32-2.31-1.87-4.77-3.32-5.56-4.94-2.69-8.63.12-11.57,4.71-.36-.47-.73-.93-1.09-1.39.63-1.29.95-2.93,1.95-3.81,3.44-3,7.54-3.15,11.73-1.81,3.84,1.23,4,4.6,4.08,7.76.16,4.73,0,9.46,0,14.19l-1.32,1.61c-.45-1.36-.89-2.73-1.05-3.23-3.69.74-7.08,2.19-10.24,1.79-2.16-.27-4.95-2.75-5.74-4.88-1.19-3.18,1.13-5.82,4.34-6.76C971.26,543.23,975,542.67,979.83,541.67Zm-1.07,2.55L970.3,546c-.33.07-.78,0-.95.22-1.17,1.38-2.28,2.82-3.41,4.24,1.53,1.2,2.95,3.22,4.6,3.43C975.73,554.55,978.67,551,978.76,544.22Z" transform="translate(-1 -1)"/><path d="M801,525.26V535.9c1.81-.92,3.15-2.21,4.38-2.11,2.92.25,6.38.37,8.55,2,3,2.21,2.84,16.42-.24,21.44-.26-3.13-.51-5.05-.57-7-.08-2.66,0-5.32,0-8,0-3.19-.56-6.24-4.45-6.65-4.19-.44-6.68,2-7.31,5.9-.53,3.24-.23,6.62-.32,9.94a8,8,0,0,1-1.1,4.39c-2.54-8.63-1.28-17.55-1.59-26.33-.06-1.51.6-3,.93-4.58Z" transform="translate(-1 -1)"/><path d="M768.73,545.08H750.79c1.89,3.28,2.86,6,4.72,7.91,2.12,2.14,3.27,1.55,12-3.7-.31,4.68-3.31,7.16-8.51,7-6.26-.16-10.12-4.72-10-11.81.14-6.72,4.2-11.3,10.07-11.38S768.31,536.84,768.73,545.08ZM752,542.69h13.92c-.32-4.27-2.09-7.15-6.25-7.36C755.12,535.09,752.81,537.9,752,542.69Z" transform="translate(-1 -1)"/><path d="M607.72,547.54c-.6,6.67-3.78,9.1-9.24,8.73-6-.41-9.6-4.94-9.43-11.82.16-6.71,4.24-11.29,10.11-11.33s9.19,3.77,9.55,11.87h-18c2,3.4,2.83,6.56,4.87,8C600.62,556.48,604.21,552.79,607.72,547.54Zm-1.77-4.7c-.43-4.67-2.36-7.4-6.79-7.58-3.92-.15-6.29,2.64-6.69,7.58Z" transform="translate(-1 -1)"/><path d="M432.55,545.07H414.37c2.4,3.59,3.48,6.92,5.74,8.23,4.75,2.76,8.28-.38,11-5.42.51,5.37-2.1,8-6.85,8.38-6.67.52-11-3.7-11.24-11-.24-6.9,3.77-11.88,9.77-12.15C429.07,532.85,432.59,537,432.55,545.07Zm-16.47-2.43H430c-.6-4.51-2.51-7.45-7-7.33C418.79,535.42,416.62,538.17,416.08,542.64Z" transform="translate(-1 -1)"/><path d="M372.78,545H354.72c2,3.42,2.95,6.67,5.08,8.1,5,3.39,8.32-.72,11.56-4.79.14,5.22-2.73,7.86-7.67,8-6.23.17-10.18-3.8-10.6-10.66s3.37-12,9.36-12.49C368.63,532.63,372.16,536.47,372.78,545Zm-16.64-2.25h13.65c-.05-4.46-2.05-7.36-6.41-7.44S356.58,538.08,356.14,542.76Z" transform="translate(-1 -1)"/><path d="M378.53,555.92a198.52,198.52,0,0,1-.15-20.75c2.74-.55,4.72-.67,6.47-1.35,5.1-2,10,.11,10.55,5.43.57,5.52.12,11.14.12,16.72l-1.9.06a33.5,33.5,0,0,1-.51-3.83c-.09-3.5,0-7-.07-10.5,0-3.11-1-6.32-4.47-5.91a10.14,10.14,0,0,0-6.67,4.52c-1.27,2.2-.77,5.46-.89,8.27-.12,2.4,0,4.81,0,7.22Z" transform="translate(-1 -1)"/><path d="M664.83,534.83c2.18-.31,4.08-.21,5.65-.87,5.51-2.31,10.43,0,11.07,5.89a124.58,124.58,0,0,1,.22,14.47c0,.58-.72,1.17-1.11,1.75l-1.58-.14c0-2.78,0-5.56,0-8.34,0-1.83,0-3.67,0-5.5,0-3.26-.77-6.22-4.63-6.51-4.19-.31-6.64,2.26-7.16,6.13-.49,3.61-.2,7.32-.31,11,0,1.06-.27,2.11-.44,3.4C663.91,553.92,663.22,540.45,664.83,534.83Z" transform="translate(-1 -1)"/><path d="M822.69,535c2.38-.35,4.12-.25,5.53-.88,5.71-2.54,10.73-.17,11.38,6a120.45,120.45,0,0,1,.19,14c0,.69-.81,1.37-1.24,2.06l-1.47-.23c0-4.16,0-8.32,0-12.48,0-3.6,0-7.35-4.86-7.84-4-.41-6.94,2.8-7.16,7.87-.18,4.11,0,8.24,0,12.67C822,554.35,821.14,543.06,822.69,535Z" transform="translate(-1 -1)"/><path d="M495.9,544.63c.11,7.18-3.72,11.63-10.07,11.71-5.79.07-9.78-4.58-9.83-11.46s3.86-11.77,9.51-11.8C491.73,533.06,495.79,537.57,495.9,544.63Zm-2.82,0c0-5.59-2.72-9.26-6.88-9.31-4.48-.06-7.36,3.6-7.37,9.37s2.73,9.48,7.18,9.49S493.08,550.58,493.08,544.6Z" transform="translate(-1 -1)"/><path d="M845,544.85c0-6.92,3.88-11.75,9.53-11.77,6.22,0,10.27,4.52,10.37,11.58s-3.74,11.61-10.1,11.68C849,556.4,845,551.74,845,544.85Zm17.07-.1c0-5.6-2.59-9.31-6.71-9.47-4.48-.16-7.47,3.5-7.53,9.23s2.6,9.54,7,9.64S862,550.72,862.07,544.75Z" transform="translate(-1 -1)"/><path d="M898.9,544.61c.12,7.18-3.71,11.64-10.06,11.73-5.79.08-9.78-4.56-9.84-11.45s3.84-11.77,9.49-11.8C894.71,533,898.78,537.55,898.9,544.61ZM881,544.38l.75.42a18.71,18.71,0,0,0,.53,3.93c1.12,3.19,3.21,6.15,6.79,5.21a11,11,0,0,0,6.3-5.13c2.1-4.24.59-10.83-2.66-12.14-2.23-.91-5.88-1-7.66.31C883,538.47,882.31,541.83,881,544.38Z" transform="translate(-1 -1)"/><path d="M930.08,563.14c6.14-2.44,7.27-5.24,4.72-11.75-2.22-5.67-4.46-11.33-6.76-17.2,3,.47,3,.47,5.67,7.4,1.24,3.24,2.47,6.48,4.23,11.1l8-19.38,1.51.61a6.84,6.84,0,0,1-.18,2c-3.25,8.35-6.42,16.73-9.91,25C935.4,565.48,932.79,566.08,930.08,563.14Z" transform="translate(-1 -1)"/><path d="M736.2,528.81v27.47c-2.83-1.95-2.83-1.95-2.83-13.43V528.3L724,527.22c0-.54.09-1.07.14-1.61h22.46C743.65,529.47,739.63,526.66,736.2,528.81Z" transform="translate(-1 -1)"/><path d="M1079,553.92h15v1.43h-17.91v-30l1.41-.39a15.47,15.47,0,0,1,1.17,3.95c.12,6.33,0,12.67.06,19C1078.77,549.52,1078.9,551.16,1079,553.92Z" transform="translate(-1 -1)"/><path d="M791.65,540.15c-4.17-3.69-8.29-7.46-13.62-2.51-2.86,2.67-3.19,10.33-.46,13.56,5.88,7,10,1.15,14.71-3.53-1.21,6.5-4.32,8.89-9.87,8.67s-9-4.05-9.38-10.27c-.42-6.84,2.54-11.71,7.79-12.82S790.25,534.6,791.65,540.15Z" transform="translate(-1 -1)"/><path d="M717.18,192.18h10.54v11.1H717.18Z" transform="translate(-1 -1)"/><path d="M717.29,316.73h10.52v10.9H717.29Z" transform="translate(-1 -1)"/><path d="M655.28,237.53H665.9v11H655.28Z" transform="translate(-1 -1)"/><path d="M779.08,237.6h10.66v10.85H779.08Z" transform="translate(-1 -1)"/><path d="M789.72,282.47H779.1v-11h10.62Z" transform="translate(-1 -1)"/><path d="M666,254.54v10.85H655.35V254.54Z" transform="translate(-1 -1)"/><path d="M655.24,271.42h10.7v11h-10.7Z" transform="translate(-1 -1)"/><path d="M779.07,254.54h10.68V265.4H779.07Z" transform="translate(-1 -1)"/><path d="M711,192.29v10.86H700.42V192.29Z" transform="translate(-1 -1)"/><path d="M744.72,316.83v10.89H734.07V316.83Z" transform="translate(-1 -1)"/><path d="M710.83,327.73H700.3V316.81h10.53Z" transform="translate(-1 -1)"/><path d="M744.72,192.25v11H734.14v-11Z" transform="translate(-1 -1)"/><path d="M473.23,535l-4.54,1.27v19.53l-1.32.15c-3.9-6.56,2.43-15.55-3.59-21.28.79-1.37,2.06-2.77,2.43-4.38,1.22-5.32,2.72-6.31,9-4.76-2.73,2-8.13,1.72-5.71,7.54l3.57,1C473.12,534.44,473.18,534.74,473.23,535Z" transform="translate(-1 -1)"/><path d="M409.39,555.5c-4.16,1.37-6.08.28-6.31-4.57-.16-3.65.16-7.33-.13-11-.15-1.9-1.14-3.74-1.73-5.56l3.21-7.42,1.07.1c.13,1.68-.19,3.59.51,5,.59,1.16,2.37,1.71,3.6,2.51-7.37,3.63-2.69,10.28-3.57,15.49C405.78,551.56,408.09,553.51,409.39,555.5Z" transform="translate(-1 -1)"/><path d="M995.65,555.57c-4.94,1.14-6.46.07-6.59-5.36-.1-3.66.17-7.34-.12-11-.13-1.58-1.24-3.08-1.91-4.63,1-2.31,2.26-5,3.7-8.16,2.23,2.89-1.24,8.48,6,7.27-8.29,4.53-4,11.18-4.7,16.54C991.85,551.79,994.3,553.68,995.65,555.57Z" transform="translate(-1 -1)"/><path d="M614.83,535.35a34.8,34.8,0,0,1,5.19-1.59,12.75,12.75,0,0,1,5.53.54c-8.49,4.84-8.49,4.84-8.51,16.37v5.79C614.11,553.86,613.44,540.65,614.83,535.35Z" transform="translate(-1 -1)"/><path d="M872.4,556.27c-2.65-3.13-2.85-27.42,0-32.18Z" transform="translate(-1 -1)"/><path d="M502.08,555.88V534.63l11.05-1.07c-.68,1.61-.71,1.86-.82,1.9-8.19,2.64-8.24,2.71-8.27,12.28,0,2.7,0,5.4,0,8.09Z" transform="translate(-1 -1)"/><path d="M439.14,555.91V534.7l11.05-1.26c-.82,1.75-.92,2.27-1.09,2.29-7.21,1.15-7.91,2-8,9.9-.06,3.39,0,6.78,0,10.16Z" transform="translate(-1 -1)"/><path d="M656.63,534v22C653.78,553.71,653.39,538,656.63,534Z" transform="translate(-1 -1)"/><path class="cls-1" d="M937.6,403.78c4.35,13.12,8.29,25,12.37,37.3H925.32C929.35,428.84,933.25,417,937.6,403.78Z" transform="translate(-1 -1)"/><path class="cls-1" d="M921.31,545c0,5.61-2.87,9.16-7.53,9.18s-7.83-3.72-7.8-9.53c0-5.52,3.08-9.28,7.58-9.32S921.26,539.17,921.31,545Z" transform="translate(-1 -1)"/><path class="cls-1" d="M705.31,545c0,5.62-2.87,9.16-7.53,9.18s-7.83-3.72-7.8-9.53c0-5.52,3.08-9.28,7.58-9.32S705.26,539.17,705.31,545Z" transform="translate(-1 -1)"/><path class="cls-1" d="M645.32,545.35c-.07,5.56-3.13,9-7.86,8.86s-7.62-4-7.47-9.85c.13-5.51,3.33-9.13,7.89-9S645.39,539.42,645.32,545.35Z" transform="translate(-1 -1)"/><path class="cls-1" d="M1110.09,528.11c2.4,5.93,4.23,10.47,6.25,15.45H1104.1C1106,538.68,1107.75,534.13,1110.09,528.11Z" transform="translate(-1 -1)"/><path class="cls-1" d="M978.76,544.22c-.09,6.8-3,10.33-8.22,9.66-1.65-.21-3.07-2.23-4.6-3.43,1.13-1.42,2.24-2.86,3.41-4.24.17-.2.62-.15.95-.22Z" transform="translate(-1 -1)"/><path class="cls-1" d="M752,542.69c.81-4.79,3.12-7.6,7.67-7.36,4.16.21,5.93,3.09,6.25,7.36Z" transform="translate(-1 -1)"/><path class="cls-1" d="M606,542.84H592.47c.4-4.94,2.77-7.73,6.69-7.58C603.59,535.44,605.52,538.17,606,542.84Z" transform="translate(-1 -1)"/><path class="cls-1" d="M416.08,542.64c.54-4.47,2.71-7.22,7-7.33,4.45-.12,6.36,2.82,7,7.33Z" transform="translate(-1 -1)"/><path class="cls-1" d="M356.14,542.76c.44-4.68,2.74-7.53,7.24-7.44s6.36,3,6.41,7.44Z" transform="translate(-1 -1)"/><path class="cls-1" d="M493.08,544.6c0,6-2.65,9.56-7.07,9.55s-7.19-3.63-7.18-9.49,2.89-9.43,7.37-9.37C490.36,535.34,493.07,539,493.08,544.6Z" transform="translate(-1 -1)"/><path class="cls-1" d="M862.07,544.75c0,6-2.75,9.5-7.21,9.4s-7.09-3.76-7-9.64,3-9.39,7.53-9.23C859.48,535.44,862.11,539.15,862.07,544.75Z" transform="translate(-1 -1)"/><path class="cls-1" d="M881,544.38c1.29-2.55,2-5.91,4.05-7.4,1.78-1.28,5.43-1.22,7.66-.31,3.25,1.31,4.76,7.9,2.66,12.14a11,11,0,0,1-6.3,5.13c-3.58.94-5.67-2-6.79-5.21a18.71,18.71,0,0,1-.53-3.93Z" transform="translate(-1 -1)"/></g></g></svg>