<svg xmlns="http://www.w3.org/2000/svg" viewBox="0 0 980.17 491.43"><defs><style>.cls-1{font-size:155.63px;stroke:#000;stroke-miterlimit:10;font-family:DINAlternate-Bold, DIN Alternate;font-weight:700;}.cls-1,.cls-2{fill:#1a1a1a;}</style></defs><title>Asset 3</title><g id="Layer_2" data-name="Layer 2"><g id="Layer_1-2" data-name="Layer 1"><polygon points="495.63 47.77 471.44 94.02 458.45 61.78 445.52 82 431.08 82 431.08 32.5 540.09 32.5 540.09 82 523.96 82 511.82 108.12 495.63 47.77"/><path d="M542.58,33V81.5h-16l-.27.58-11.43,24.58-15.5-57.79-.66-2.47-1.19,2.27L474.49,92.83,462.27,62.49l-.73-1.8-1,1.64L448.24,81.5H434.58V33h108m1-1h-110V82.5h15.21l12.55-19.64,13,32.35,24.09-46.08,16.22,60.45L527.27,82.5h16.31V32Z" transform="translate(-2.99)"/><polygon points="431.08 141.5 431.08 89 449.47 89 457 77.22 470.6 110.98 493.47 67.23 510.01 128.88 528.55 89 540.09 89 540.09 141.5 431.08 141.5"/><path d="M496.31,68.6l15.85,59.08.71,2.66,1.16-2.49L531.86,89.5h10.72V141h-108V89.5h18.15L453,89l6.86-10.73,12.83,31.85.81,2,1-1.92L496.31,68.6m.3-2.73-23,43.92L460.09,76.14l-7.9,12.36H433.58V142h110V88.5H531.22l-18.1,38.92L496.61,65.87Z" transform="translate(-2.99)"/><rect x="559.08" y="60" width="13" height="15"/><path d="M574.58,60.5v14h-12v-14h12m1-1h-14v16h14v-16Z" transform="translate(-2.99)"/><rect x="497.58" y="0.5" width="15" height="13"/><path d="M515.08,1V13h-14V1h14m1-1h-16V14h16V0Z" transform="translate(-2.99)"/><rect x="459.58" y="0.5" width="12" height="13"/><path d="M474.08,1V13h-11V1h11m1-1h-13V14h13V0Z" transform="translate(-2.99)"/><path d="M562.08,53V25.75A12.26,12.26,0,0,0,549.83,13.5H522.58V.5h27.25a25.28,25.28,0,0,1,25.25,25.25V53Z" transform="translate(-2.99)"/><path d="M549.83,1a24.78,24.78,0,0,1,24.75,24.75V52.5h-12V25.75A12.76,12.76,0,0,0,549.83,13H523.08V1h26.75m0-1H522.08V14h27.75a11.75,11.75,0,0,1,11.75,11.75V53.5h14V25.75A25.78,25.78,0,0,0,549.83,0Z" transform="translate(-2.99)"/><rect x="559.08" y="82" width="13" height="12"/><path d="M574.58,82.5v11h-12v-11h12m1-1h-14v13h14v-13Z" transform="translate(-2.99)"/><rect x="459.58" y="160.5" width="12" height="13"/><path d="M474.08,161v12h-11V161h11m1-1h-13v14h13V160Z" transform="translate(-2.99)"/><rect x="559.08" y="101" width="13" height="12"/><path d="M574.58,101.5v11h-12v-11h12m1-1h-14v13h14v-13Z" transform="translate(-2.99)"/><rect x="478.58" y="0.5" width="12" height="13"/><path d="M493.08,1V13h-11V1h11m1-1h-13V14h13V0Z" transform="translate(-2.99)"/><path d="M427.32,173.5a25.27,25.27,0,0,1-25.24-25.25V120h13v28.25a12.25,12.25,0,0,0,12.24,12.25h28.26v13Z" transform="translate(-2.99)"/><path d="M414.58,120.5v27.75A12.76,12.76,0,0,0,427.32,161h27.76v12H427.32a24.77,24.77,0,0,1-24.74-24.75V120.5h12m1-1h-14v28.75A25.78,25.78,0,0,0,427.32,174h28.76V160H427.32a11.75,11.75,0,0,1-11.74-11.75V119.5Z" transform="translate(-2.99)"/><rect x="399.08" y="60" width="13" height="15"/><path d="M414.58,60.5v14h-12v-14h12m1-1h-14v16h14v-16Z" transform="translate(-2.99)"/><rect x="399.08" y="82" width="13" height="12"/><path d="M414.58,82.5v11h-12v-11h12m1-1h-14v13h14v-13Z" transform="translate(-2.99)"/><path d="M522.58,173.5v-13h27.25a12.26,12.26,0,0,0,12.25-12.25V120h13v28.25a25.28,25.28,0,0,1-25.25,25.25Z" transform="translate(-2.99)"/><path d="M574.58,120.5v27.75A24.78,24.78,0,0,1,549.83,173H523.08V161h26.75a12.76,12.76,0,0,0,12.75-12.75V120.5h12m1-1h-14v28.75A11.75,11.75,0,0,1,549.83,160H522.08v14h27.75a25.78,25.78,0,0,0,25.75-25.75V119.5Z" transform="translate(-2.99)"/><rect x="399.08" y="101" width="13" height="12"/><path d="M414.58,101.5v11h-12v-11h12m1-1h-14v13h14v-13Z" transform="translate(-2.99)"/><rect x="478.58" y="160.5" width="12" height="13"/><path d="M493.08,161v12h-11V161h11m1-1h-13v14h13V160Z" transform="translate(-2.99)"/><rect x="497.58" y="160.5" width="15" height="13"/><path d="M515.08,161v12h-14V161h14m1-1h-16v14h16V160Z" transform="translate(-2.99)"/><path d="M402.08,53V25.75A25.27,25.27,0,0,1,427.32.5h28.26v13H427.32a12.25,12.25,0,0,0-12.24,12.25V53Z" transform="translate(-2.99)"/><path d="M455.08,1V13H427.32a12.76,12.76,0,0,0-12.74,12.75V52.5h-12V25.75A24.77,24.77,0,0,1,427.32,1h27.76m1-1H427.32a25.78,25.78,0,0,0-25.74,25.75V53.5h14V25.75A11.75,11.75,0,0,1,427.32,14h28.76V0Z" transform="translate(-2.99)"/><text class="cls-1" transform="translate(165.84 367.1) scale(0.97 1)">CET UCLA</text><path class="cls-2" d="M33.78,467.35c-1.32,6.37-5.41,12.09-14.62,12.09C7.55,479.44,3,470.37,3,457.56c0-10.47,4.83-20.95,16.41-20.95,8.52,0,13.13,5,14.2,12.33H30.37c-1.19-5.77-4.57-9.48-11.09-9.48-9,0-13,8.54-13,18.15,0,9.27,3,19,13.05,19,6.58,0,9.73-3.54,11.33-9.24Z" transform="translate(-2.99)"/><path class="cls-2" d="M42.52,464.22c-.06,7.54,3.26,12.5,9.12,12.5,5.65,0,7.38-4.16,8-5.89h2.94c-.68,2.92-3.23,8.61-11.21,8.61-9.26,0-11.93-8-11.93-15.79,0-7.32,3.55-15.43,12.17-15.43,9,0,11.5,7.44,11.5,13.83v2.17Zm17.63-2.58c-.18-6.24-2.67-10.71-8.63-10.71-6.91,0-8.52,6.54-8.88,10.71Z" transform="translate(-2.99)"/><path class="cls-2" d="M70.24,458.24c0-6.3-.06-8.16-.12-9.42h2.93c.06.6.18,4.1.12,5.25,1.26-2.93,3.85-5.85,9.17-5.85,5.07,0,9.61,2.55,9.61,11.45v19.17H89v-18.9c0-5-1.9-8.88-6.85-8.88-6.54,0-8.92,5.22-8.92,12.2v15.58H70.24Z" transform="translate(-2.99)"/><path class="cls-2" d="M96.61,448.82h5.2v-9.11h2.93v9.11h6.52v2.66h-6.52v21c0,2.8.72,4,3.35,4a16.15,16.15,0,0,0,2.69-.23v2.52a10.05,10.05,0,0,1-3.34.49c-3.42,0-5.63-1.23-5.63-5.82v-22h-5.2Z" transform="translate(-2.99)"/><path class="cls-2" d="M117.76,464.22c-.06,7.54,3.26,12.5,9.11,12.5,5.66,0,7.39-4.16,8-5.89h2.94c-.68,2.92-3.23,8.61-11.22,8.61-9.25,0-11.92-8-11.92-15.79,0-7.32,3.54-15.43,12.17-15.43,9,0,11.5,7.44,11.5,13.83v2.17Zm17.63-2.58c-.18-6.24-2.67-10.71-8.63-10.71-6.91,0-8.52,6.54-8.88,10.71Z" transform="translate(-2.99)"/><path class="cls-2" d="M145.48,459c0-4.69-.06-9.1-.12-10.2h2.93c.06,1.49.06,3.41.06,6.63a10.67,10.67,0,0,1,10.13-7.23v3.23c-7.13.47-10.07,5.68-10.07,11.88v15.51h-2.93Z" transform="translate(-2.99)"/><path class="cls-2" d="M179.09,478.84V451.48h-5v-2.66h5v-4.41c0-4.94,1.24-9.84,7.43-9.84a7.07,7.07,0,0,1,2.48.36v2.78a9.8,9.8,0,0,0-2.69-.3c-3,0-4.29,2-4.29,6.48v4.93h6v2.66h-6v27.36Z" transform="translate(-2.99)"/><path class="cls-2" d="M215.3,463.29c0,8.65-3.55,16-12.76,16-8.57,0-12.29-7.57-12.29-15.91,0-8.15,4.38-15.19,12.65-15.19C210.63,448.22,215.3,454.3,215.3,463.29Zm-21.94.18c0,7.24,3.22,13.13,9.48,13.13,6.72,0,9.29-5.71,9.29-13.31,0-6.88-3.16-12.35-9.42-12.35S193.36,456.24,193.36,463.47Z" transform="translate(-2.99)"/><path class="cls-2" d="M222.52,459c0-4.69-.06-9.1-.12-10.2h2.93c.06,1.49.06,3.41.06,6.63a10.65,10.65,0,0,1,10.12-7.23v3.23c-7.12.47-10.06,5.68-10.06,11.88v15.51h-2.93Z" transform="translate(-2.99)"/><path class="cls-2" d="M278.58,458.32H259.47v17.73h21l-.49,2.79H256.42V437.21h23.12V440H259.47v15.47h19.11Z" transform="translate(-2.99)"/><path class="cls-2" d="M287.14,458.18c0-4.94-.06-8-.12-9.36H290c.06.72.18,3.75.12,4.71a8.89,8.89,0,0,1,8.46-5.31c3.91,0,6.6,1.63,7.8,5.5a9.26,9.26,0,0,1,8.83-5.5c4.22,0,8.61,2.11,8.61,10.09v20.53h-2.93v-20c0-4.29-1.32-7.81-6.26-7.81-5.37,0-7.63,4.76-7.63,9.79v18h-2.87V458.57c0-4.34-1.68-7.51-6.09-7.51-4.77,0-7.92,4-7.92,10.38v17.4h-2.93Z" transform="translate(-2.99)"/><path class="cls-2" d="M334.06,464.22c-.06,7.54,3.26,12.5,9.11,12.5,5.66,0,7.39-4.16,8-5.89h2.93c-.68,2.92-3.22,8.61-11.21,8.61-9.25,0-11.92-8-11.92-15.79,0-7.32,3.54-15.43,12.16-15.43,9,0,11.51,7.44,11.51,13.83v2.17Zm17.63-2.58c-.18-6.24-2.68-10.71-8.64-10.71-6.9,0-8.51,6.54-8.87,10.71Z" transform="translate(-2.99)"/><path class="cls-2" d="M361.78,459c0-4.69-.06-9.1-.12-10.2h2.93c.06,1.49.06,3.41.06,6.63a10.65,10.65,0,0,1,10.12-7.23v3.23c-7.12.47-10.06,5.68-10.06,11.88v15.51h-2.93Z" transform="translate(-2.99)"/><path class="cls-2" d="M400.89,477c0,9.42-3.72,14.42-12,14.42s-10.68-4.34-11.15-8.49h2.93c.77,4,4,5.83,8.23,5.83,7.39,0,9.11-5,9.11-12.33v-2.86c-1.56,3.7-4,5.6-9.33,5.6-7,0-11.42-6.05-11.42-15.36,0-9.84,5.17-15.6,12.19-15.6,4.74,0,7.6,2.09,8.44,4.88,0-1.65.12-3.51.18-4.28H401c-.06,1.38-.12,4.45-.12,8.48Zm-20.51-13.19c0,8,3.46,12.52,8.82,12.52,6.56,0,8.89-4.23,8.89-12.7,0-8.81-2.25-12.58-8.59-12.58C383.55,451.06,380.38,456.28,380.38,463.82Z" transform="translate(-2.99)"/><path class="cls-2" d="M410.32,435.1h2.93v5.8h-2.93Zm0,13.72h2.93v30h-2.93Z" transform="translate(-2.99)"/><path class="cls-2" d="M422.68,458.24c0-6.3-.07-8.16-.12-9.42h2.93c.06.6.18,4.1.12,5.25,1.26-2.93,3.85-5.85,9.17-5.85,5.07,0,9.6,2.55,9.6,11.45v19.17h-3v-18.9c0-5-1.9-8.88-6.86-8.88-6.53,0-8.92,5.22-8.92,12.2v15.58h-2.93Z" transform="translate(-2.99)"/><path class="cls-2" d="M475.23,477c0,9.42-3.72,14.42-12,14.42s-10.67-4.34-11.14-8.49H455c.77,4,4,5.83,8.22,5.83,7.39,0,9.12-5,9.12-12.33v-2.86c-1.56,3.7-4,5.6-9.34,5.6-7,0-11.42-6.05-11.42-15.36,0-9.84,5.18-15.6,12.2-15.6,4.74,0,7.6,2.09,8.44,4.88,0-1.65.12-3.51.18-4.28h2.93c-.06,1.38-.12,4.45-.12,8.48Zm-20.51-13.19c0,8,3.45,12.52,8.82,12.52,6.56,0,8.88-4.23,8.88-12.7,0-8.81-2.24-12.58-8.58-12.58C457.89,451.06,454.72,456.28,454.72,463.82Z" transform="translate(-2.99)"/><path class="cls-2" d="M507.76,440.06H495v-2.85h28.66v2.85h-12.8v38.78h-3.12Z" transform="translate(-2.99)"/><path class="cls-2" d="M523.66,464.22c-.06,7.54,3.26,12.5,9.11,12.5,5.66,0,7.38-4.16,8-5.89h2.93c-.68,2.92-3.22,8.61-11.21,8.61-9.25,0-11.93-8-11.93-15.79,0-7.32,3.55-15.43,12.17-15.43,9,0,11.51,7.44,11.51,13.83v2.17Zm17.63-2.58c-.18-6.24-2.68-10.71-8.64-10.71-6.91,0-8.52,6.54-8.87,10.71Z" transform="translate(-2.99)"/><path class="cls-2" d="M573,469.86c-1.43,5.77-5.09,9.58-11.39,9.58-7.95,0-12.16-5.53-12.16-15.73,0-8.08,3.76-15.49,12.35-15.49,6.79,0,10.55,4.5,11.14,10h-3c-.77-3.87-3.09-7.28-8.15-7.28-6.32,0-9.17,5.43-9.17,12.83,0,8.14,3.21,13,9.16,13,4.66,0,6.91-2.81,8.22-6.86Z" transform="translate(-2.99)"/><path class="cls-2" d="M582.51,435.1v18.49c1.5-3.16,4.67-5.37,9.34-5.37,3.7,0,9.43,1.82,9.43,10.69v19.93h-2.93V459.52c0-5.47-2.32-8.46-7.15-8.46-5.49,0-8.69,3.64-8.69,10.38v17.4h-2.94V435.1Z" transform="translate(-2.99)"/><path class="cls-2" d="M610.71,458.24c0-6.3-.06-8.16-.12-9.42h2.93c.07.6.19,4.1.13,5.25,1.26-2.93,3.85-5.85,9.17-5.85,5.07,0,9.6,2.55,9.6,11.45v19.17h-3v-18.9c0-5-1.9-8.88-6.86-8.88-6.53,0-8.92,5.22-8.92,12.2v15.58h-2.94Z" transform="translate(-2.99)"/><path class="cls-2" d="M664.7,463.29c0,8.65-3.56,16-12.77,16-8.57,0-12.29-7.57-12.29-15.91,0-8.15,4.38-15.19,12.65-15.19C660,448.22,664.7,454.3,664.7,463.29Zm-21.94.18c0,7.24,3.22,13.13,9.47,13.13,6.72,0,9.3-5.71,9.3-13.31,0-6.88-3.16-12.35-9.42-12.35S642.76,456.24,642.76,463.47Z" transform="translate(-2.99)"/><path class="cls-2" d="M671.91,478.84V435.1h2.94v43.74Z" transform="translate(-2.99)"/><path class="cls-2" d="M707.12,463.29c0,8.65-3.56,16-12.77,16-8.57,0-12.29-7.57-12.29-15.91,0-8.15,4.38-15.19,12.65-15.19C702.44,448.22,707.12,454.3,707.12,463.29Zm-21.94.18c0,7.24,3.21,13.13,9.47,13.13,6.72,0,9.3-5.71,9.3-13.31,0-6.88-3.16-12.35-9.42-12.35S685.18,456.24,685.18,463.47Z" transform="translate(-2.99)"/><path class="cls-2" d="M736,477c0,9.42-3.72,14.42-12,14.42s-10.67-4.34-11.15-8.49h2.93c.78,4,4,5.83,8.23,5.83,7.39,0,9.12-5,9.12-12.33v-2.86c-1.56,3.7-4,5.6-9.34,5.6-7,0-11.42-6.05-11.42-15.36,0-9.84,5.18-15.6,12.2-15.6,4.74,0,7.6,2.09,8.44,4.88,0-1.65.12-3.51.18-4.28h2.93c-.06,1.38-.12,4.45-.12,8.48Zm-20.51-13.19c0,8,3.45,12.52,8.82,12.52,6.56,0,8.88-4.23,8.88-12.7,0-8.81-2.25-12.58-8.58-12.58C718.65,451.06,715.48,456.28,715.48,463.82Z" transform="translate(-2.99)"/><path class="cls-2" d="M744.76,448.82c5.42,15.72,8.11,23.21,9.06,26.93h.06c1-3,3.6-11.35,8.76-26.93h3.17l-10.68,31.4c-3,8.78-4.67,11.21-10.12,11.21a13.85,13.85,0,0,1-2.3-.18v-2.78a14.86,14.86,0,0,0,2.47.18c4.34,0,5.31-3.74,7.2-9.19l-10.86-30.64Z" transform="translate(-2.99)"/><path class="cls-2" d="M808.11,472.91a36.48,36.48,0,0,0,.48,5.93h-2.86a30.15,30.15,0,0,1-.42-5.31c-1.09,3.4-4.26,5.85-9.52,5.85-7.27,0-9.27-5.15-9.27-9.07S788.9,461,799.87,461h5.3V457.6c0-3.11-.83-6.73-7-6.73-5,0-6.91,2.15-7.56,6.19h-2.93c.54-5.21,3.48-8.84,10.67-8.84,5.73,0,9.72,2.58,9.72,9Zm-2.87-9.34h-5.48c-8.52,0-10.12,3.45-10.12,6.67,0,3.51,2.13,6.36,6.43,6.36,6.68,0,9.17-4.53,9.17-12.43Z" transform="translate(-2.99)"/><path class="cls-2" d="M812.58,448.82h5.2v-9.11h2.93v9.11h6.52v2.66h-6.52v21c0,2.8.72,4,3.36,4a16.12,16.12,0,0,0,2.68-.23v2.52a10.05,10.05,0,0,1-3.34.49c-3.42,0-5.63-1.23-5.63-5.82v-22h-5.2Z" transform="translate(-2.99)"/><path class="cls-2" d="M851,437.21v26.51c0,7.79,3.14,12.82,11.09,12.82s10.9-4.79,10.9-12.88V437.21h3.24V463.9c0,8.82-3.61,15.54-14.26,15.54-9.43,0-14.14-4.9-14.14-15.07V437.21Z" transform="translate(-2.99)"/><path class="cls-2" d="M915.47,467.35c-1.32,6.37-5.41,12.09-14.62,12.09-11.61,0-16.17-9.07-16.17-21.88,0-10.47,4.82-20.95,16.41-20.95,8.52,0,13.13,5,14.2,12.33h-3.23c-1.19-5.77-4.57-9.48-11.09-9.48-9,0-13.05,8.54-13.05,18.15,0,9.27,3,19,13.05,19,6.58,0,9.72-3.54,11.33-9.24Z" transform="translate(-2.99)"/><path class="cls-2" d="M923.13,437.21h3.06v38.84h20.94l-.61,2.79H923.13Z" transform="translate(-2.99)"/><path class="cls-2" d="M958.66,464.42l-4.76,14.42h-3.17c4.42-13.12,9.13-26.74,14.07-41.63h3.76l14.6,41.63h-3.41l-4.83-14.42ZM974,461.57c-4.11-12.15-6.61-18.5-7.34-21.46h-.11c-1.26,5.09-3.59,11.45-6.92,21.46Z" transform="translate(-2.99)"/></g></g></svg>